<svg width="268" height="163" viewBox="0 0 268 163" fill="none" xmlns="http://www.w3.org/2000/svg">
<path d="M64.3602 162.786C54.0968 162.786 44.9025 160.644 36.7773 156.36C28.7946 152.076 22.0949 146.222 16.6781 138.796C11.2613 131.228 7.12738 122.589 4.27643 112.879C1.42548 103.026 0 92.5309 0 81.3929C0 70.3977 1.42548 59.9737 4.27643 50.1209C7.12738 40.2681 11.2613 31.629 16.6781 24.2037C22.0949 16.6356 28.7946 10.7096 36.7773 6.42576C44.9025 2.14192 54.0968 0 64.3602 0C74.6236 0 83.7467 2.14192 91.7294 6.42576C99.8546 10.7096 106.626 16.6356 112.042 24.2037C117.459 31.629 121.593 40.2681 124.444 50.1209C127.295 59.9737 128.72 70.3977 128.72 81.3929C128.72 92.5309 127.295 103.026 124.444 112.879C121.593 122.589 117.459 131.228 112.042 138.796C106.626 146.222 99.8546 152.076 91.7294 156.36C83.7467 160.644 74.6236 162.786 64.3602 162.786ZM64.3602 136.869C74.3386 136.869 82.535 132.228 88.9497 122.946C95.5069 113.664 98.7855 99.8134 98.7855 81.3929C98.7855 63.1152 95.5069 49.4069 88.9497 40.2681C82.535 30.9864 74.3386 26.3456 64.3602 26.3456C54.3819 26.3456 46.1141 30.9864 39.5569 40.2681C33.1423 49.4069 29.935 63.1152 29.935 81.3929C29.935 99.6706 33.1423 113.522 39.5569 122.946C46.1141 132.228 54.3819 136.869 64.3602 136.869Z" fill="url(#paint0_linear_116_3991)"/>
<path d="M210.054 163C199.221 163 190.098 161.358 182.685 158.074C175.273 154.789 169.286 150.577 164.724 145.436C160.305 140.296 157.098 134.798 155.102 128.943C153.107 123.089 152.109 117.663 152.109 112.665H179.478C179.478 116.949 180.547 121.161 182.685 125.302C184.966 129.3 188.387 132.585 192.949 135.155C197.51 137.583 203.141 138.796 209.841 138.796C218.108 138.796 225.022 136.654 230.581 132.371C236.283 127.944 239.134 121.875 239.134 114.164C239.134 107.31 236.711 101.741 231.864 97.4573C227.16 93.1735 220.603 91.0315 212.193 91.0315H190.811V68.5414H212.406C219.534 68.5414 225.378 66.5423 229.94 62.544C234.501 58.5458 236.782 53.4052 236.782 47.1222C236.782 40.2681 234.145 34.7705 228.871 30.6294C223.739 26.3456 217.396 24.2037 209.841 24.2037C203.711 24.2037 198.579 25.5602 194.445 28.2733C190.312 30.8436 187.176 34.1993 185.037 38.3403C182.899 42.4814 181.83 46.7652 181.83 51.1919H155.102C155.102 46.0513 156.029 40.5537 157.882 34.6991C159.878 28.8445 163.014 23.3469 167.29 18.2063C171.709 12.9229 177.411 8.63908 184.396 5.3548C191.523 1.92773 200.147 0.214189 210.268 0.214189C219.676 0.214189 228.514 1.99912 236.782 5.56899C245.192 8.99606 251.963 14.0653 257.095 20.7766C262.369 27.3452 265.007 35.1989 265.007 44.3377C265.007 50.4779 263.795 55.9041 261.372 60.6163C259.091 65.3285 256.097 69.184 252.391 72.1827C248.827 75.1813 245.05 77.3947 241.059 78.8226V80.1078C248.471 82.6781 254.814 86.8905 260.089 92.7451C265.363 98.5997 268 106.239 268 115.664C268 125.659 265.292 134.227 259.875 141.367C254.601 148.364 247.544 153.718 238.706 157.431C229.869 161.144 220.318 163 210.054 163Z" fill="url(#paint1_linear_116_3991)"/>
<defs>
<linearGradient id="paint0_linear_116_3991" x1="134" y1="0" x2="134" y2="163" gradientUnits="userSpaceOnUse">
<stop stop-color="#202020"/>
<stop offset="1" stop-color="#0a0a0a"/>
</linearGradient>
<linearGradient id="paint1_linear_116_3991" x1="134" y1="0" x2="134" y2="163" gradientUnits="userSpaceOnUse">
<stop stop-color="#202020"/>
<stop offset="1" stop-color="#0a0a0a"/>
</linearGradient>
</defs>
</svg>
