<svg width="254" height="201" viewBox="0 0 254 201" fill="none" xmlns="http://www.w3.org/2000/svg">
<path d="M79.2776 201C66.6354 201 55.31 198.355 45.3015 193.066C35.4686 187.776 27.216 180.547 20.5437 171.379C13.8714 162.034 8.77936 151.367 5.26762 139.378C1.75587 127.212 0 114.253 0 100.5C0 86.9237 1.75587 74.0526 5.26762 61.8868C8.77936 49.7211 13.8714 39.054 20.5437 29.8855C27.216 20.5408 35.4686 13.2237 45.3015 7.93422C55.31 2.64474 66.6354 0 79.2776 0C91.9199 0 103.158 2.64474 112.99 7.93422C122.999 13.2237 131.339 20.5408 138.012 29.8855C144.684 39.054 149.776 49.7211 153.288 61.8868C156.799 74.0526 158.555 86.9237 158.555 100.5C158.555 114.253 156.799 127.212 153.288 139.378C149.776 151.367 144.684 162.034 138.012 171.379C131.339 180.547 122.999 187.776 112.99 193.066C103.158 198.355 91.9199 201 79.2776 201ZM79.2776 168.999C91.5688 168.999 101.665 163.268 109.566 151.808C117.643 140.347 121.682 123.245 121.682 100.5C121.682 77.9316 117.643 61.0053 109.566 49.7211C101.665 38.2605 91.5688 32.5303 79.2776 32.5303C66.9865 32.5303 56.8025 38.2605 48.7255 49.7211C40.824 61.0053 36.8733 77.9316 36.8733 100.5C36.8733 123.068 40.824 140.171 48.7255 151.808C56.8025 163.268 66.9865 168.999 79.2776 168.999Z" fill="url(#paint0_linear_116_3971)"/>
<path d="M254 2.90922V198.62H218.707V54.7461H181.57V33.3237L187.628 31.4724C197.988 28.475 206.416 25.0368 212.913 21.1579C219.409 17.279 225.555 11.9895 231.349 5.28948L233.72 2.90922H254Z" fill="url(#paint1_linear_116_3971)"/>
<defs>
<linearGradient id="paint0_linear_116_3971" x1="127" y1="0" x2="127" y2="201" gradientUnits="userSpaceOnUse">
<stop stop-color="#202020"/>
<stop offset="1" stop-color="#0a0a0a"/>
</linearGradient>
<linearGradient id="paint1_linear_116_3971" x1="127" y1="0" x2="127" y2="201" gradientUnits="userSpaceOnUse">
<stop stop-color="#202020"/>
<stop offset="1" stop-color="#0a0a0a"/>
</linearGradient>
</defs>
</svg>
