<svg width="284" height="173" viewBox="0 0 284 173" fill="none" xmlns="http://www.w3.org/2000/svg">
<path d="M68.5857 173C57.6484 173 47.8505 170.724 39.1918 166.171C30.6851 161.618 23.5455 155.396 17.773 147.505C12.0006 139.462 7.59531 130.281 4.55719 119.962C1.51906 109.491 0 98.3368 0 86.5C0 74.8149 1.51906 63.7368 4.55719 53.2658C7.59531 42.7947 12.0006 33.6136 17.773 25.7224C23.5455 17.6794 30.6851 11.3816 39.1918 6.82895C47.8505 2.27632 57.6484 0 68.5857 0C79.5229 0 89.2449 2.27632 97.7517 6.82895C106.41 11.3816 113.626 17.6794 119.398 25.7224C125.171 33.6136 129.576 42.7947 132.614 53.2658C135.652 63.7368 137.171 74.8149 137.171 86.5C137.171 98.3368 135.652 109.491 132.614 119.962C129.576 130.281 125.171 139.462 119.398 147.505C113.626 155.396 106.41 161.618 97.7517 166.171C89.2449 170.724 79.5229 173 68.5857 173ZM68.5857 145.457C79.2191 145.457 87.9537 140.525 94.7895 130.661C101.777 120.796 105.271 106.076 105.271 86.5C105.271 67.0754 101.777 52.507 94.7895 42.7947C87.9537 32.9307 79.2191 27.9987 68.5857 27.9987C57.9522 27.9987 49.1417 32.9307 42.154 42.7947C35.3182 52.507 31.9003 67.0754 31.9003 86.5C31.9003 105.925 35.3182 120.645 42.154 130.661C49.1417 140.525 57.9522 145.457 68.5857 145.457Z" fill="url(#paint0_linear_116_3982)"/>
<path d="M162.551 170.951V149.554L194.223 121.555C205.768 111.691 215.718 103.193 224.073 96.0605C232.428 88.7763 238.884 81.9474 243.441 75.5737C247.998 69.2 250.277 62.2193 250.277 54.6316C250.277 48.8649 248.834 43.9329 245.947 39.8355C243.213 35.7382 239.643 32.6272 235.238 30.5026C230.833 28.3781 226.276 27.3158 221.567 27.3158C215.035 27.3158 209.718 28.6057 205.616 31.1855C201.667 33.7654 198.629 36.8763 196.502 40.5184C194.527 44.1605 193.16 47.7268 192.401 51.2171C191.641 54.5557 191.261 57.0597 191.261 58.7289H161.64C161.64 55.3904 162.171 51.293 163.235 46.4368C164.45 41.4289 166.425 36.2693 169.159 30.9579C171.893 25.6465 175.539 20.6386 180.096 15.9342C184.653 11.2298 190.426 7.43597 197.413 4.55264C204.401 1.6693 212.68 0.227629 222.25 0.227629C232.884 0.227629 242.606 2.35219 251.416 6.60131C260.379 10.8504 267.518 16.9206 272.835 24.8118C278.303 32.7031 281.038 42.1877 281.038 53.2658C281.038 63.4333 278.455 72.6904 273.291 81.0368C268.278 89.3833 261.366 97.5781 252.555 105.621C243.745 113.512 233.719 122.011 222.478 131.116L208.351 143.863H284V170.951H162.551Z" fill="url(#paint1_linear_116_3982)"/>
<defs>
<linearGradient id="paint0_linear_116_3982" x1="142" y1="0" x2="142" y2="173" gradientUnits="userSpaceOnUse">
<stop stop-color="#202020"/>
<stop offset="1" stop-color="#0a0a0a"/>
</linearGradient>
<linearGradient id="paint1_linear_116_3982" x1="142" y1="0" x2="142" y2="173" gradientUnits="userSpaceOnUse">
<stop stop-color="#202020"/>
<stop offset="1" stop-color="#0a0a0a"/>
</linearGradient>
</defs>
</svg>
