<svg width="100" height="100" viewBox="0 0 100 100" fill="none" xmlns="http://www.w3.org/2000/svg">
<g clip-path="url(#clip0_77_698)">
<path fill-rule="evenodd" clip-rule="evenodd" d="M50.0007 30.9955C56.9841 30.9955 62.6462 36.658 62.6462 43.641C62.6462 46.391 61.767 48.9368 60.2753 51.012C58.2669 53.8078 57.221 56.7537 57.0544 60.1163H50.9585V54.1121C50.9585 53.6204 50.5627 53.2245 50.071 53.2245C49.5794 53.2245 49.1835 53.6204 49.1835 54.1121V60.1163H42.9376C42.7709 56.7538 41.7292 53.8078 39.7167 51.012C38.2251 48.9369 37.3458 46.3911 37.3458 43.641C37.3541 36.6575 43.0175 30.9955 50.0007 30.9955ZM87.2012 19.262C90.7221 23.5162 93.5221 28.3788 95.4221 33.6664C97.2555 38.7623 98.2513 44.2624 98.2513 49.9995C98.2513 63.3245 92.8512 75.3876 84.1177 84.1205C75.3884 92.8539 63.326 98.254 50.001 98.254C44.2967 98.254 38.8254 97.2665 33.7469 95.4498C29.0218 93.7582 24.6384 91.354 20.7302 88.3706L22.6552 87.9956C23.1302 87.9039 23.4386 87.4497 23.3469 86.9747C23.2552 86.4997 22.8011 86.1914 22.326 86.2831L18.5468 87.0206C18.0759 87.1122 17.7676 87.5622 17.8551 88.0331L18.551 91.8207C18.6385 92.2957 19.0926 92.6082 19.5635 92.5207C20.0385 92.4332 20.351 91.979 20.2635 91.5081L19.9843 89.9873C23.9636 92.979 28.3969 95.3915 33.1632 97.0957C38.4216 98.9749 44.0924 100 50.0007 100C63.8089 100 76.3094 94.4041 85.3559 85.3545C94.4061 76.3085 100.001 63.8085 100.001 49.9993C100.001 44.0659 98.9639 38.3703 97.0598 33.0785C95.0847 27.591 92.1847 22.5492 88.5429 18.1492C88.2346 17.7784 87.6846 17.7242 87.3138 18.0326C86.9471 18.3409 86.8929 18.8912 87.2012 19.262ZM50.0007 14.1952C50.9257 18.6328 51.6757 19.3828 56.1091 20.3037C51.6715 21.2287 50.9215 21.9787 50.0007 26.4121C49.0757 21.9745 48.3257 21.2245 43.8922 20.3037C48.3256 19.3828 49.0756 18.6328 50.0007 14.1952ZM72.8383 37.0329C73.7633 41.4705 74.5133 42.2205 78.9468 43.1413C74.5092 44.0664 73.7592 44.8163 72.8383 49.2498C71.9133 44.8122 71.1633 44.0622 66.7299 43.1413C71.1632 42.2205 71.9133 41.4705 72.8383 37.0329ZM27.163 37.0329C28.088 41.4705 28.838 42.2205 33.2715 43.1413C28.8339 44.0664 28.0839 44.8163 27.163 49.2498C26.238 44.8122 25.488 44.0622 21.0546 43.1413C25.4922 42.2205 26.2421 41.4705 27.163 37.0329ZM12.8001 80.738C9.27924 76.4838 6.4792 71.6212 4.57922 66.3336C2.74581 61.2419 1.7459 55.7417 1.7459 50.0005C1.7459 36.6755 7.14598 24.6124 15.8794 15.8795C24.6129 7.14659 36.6755 1.74598 50.0005 1.74598C55.7048 1.74598 61.1761 2.73349 66.2546 4.55018C70.9796 6.24183 75.3631 8.64602 79.2713 11.6294L77.3462 12.0044C76.8712 12.0961 76.5629 12.5503 76.6546 13.0253C76.7462 13.5003 77.2004 13.8086 77.6754 13.717L81.4547 12.9794C81.9255 12.8878 82.2338 12.4378 82.1463 11.9669L81.4505 8.17935C81.363 7.70434 80.9088 7.39184 80.438 7.47934C79.963 7.56684 79.6505 8.02101 79.738 8.49185L80.0171 10.0127C76.0379 7.02101 71.6045 4.60849 66.8383 2.90425C61.5799 1.02508 55.9091 0 50.0007 0C36.1925 0 23.6921 5.59592 14.6455 14.6455C5.59539 23.6915 0 36.1915 0 50.0007C0 55.9341 1.03752 61.6297 2.9417 66.9215C4.91676 72.409 7.81675 77.4508 11.4585 81.8508C11.7668 82.2216 12.3169 82.2758 12.6876 81.9674C13.0543 81.6591 13.1085 81.1088 12.8001 80.738ZM42.6544 39.675C43.0753 38.7542 43.7045 37.9458 44.4836 37.3209C45.2544 36.7042 46.1711 36.2625 47.1711 36.0542C47.6503 35.9542 47.9586 35.4834 47.8586 35.0042C47.7586 34.525 47.2877 34.2167 46.8086 34.3167C45.5294 34.5833 44.3544 35.15 43.371 35.9375C42.3751 36.7375 41.5668 37.7666 41.0334 38.9459C40.8334 39.3917 41.0293 39.9167 41.4793 40.1209C41.9293 40.3209 42.4544 40.1209 42.6544 39.675ZM57.0333 61.8962V64.6503C57.0333 70.3754 42.9627 70.5296 42.9627 64.6503V61.8962H57.0333Z" fill="#a3e635"/>
</g>
<defs>
<clipPath id="clip0_77_698">
<rect width="100" height="100" fill="white"/>
</clipPath>
</defs>
</svg>
