<svg width="100" height="100" viewBox="0 0 100 100" fill="none" xmlns="http://www.w3.org/2000/svg">
<g clip-path="url(#clip0_116_3983)">
<mask id="mask0_116_3983" style="mask-type:alpha" maskUnits="userSpaceOnUse" x="0" y="0" width="100" height="100">
<circle cx="50" cy="50" r="50" fill="#a3e635"/>
</mask>
<g mask="url(#mask0_116_3983)">
<path d="M19.9755 43.3151C19.9755 47.3666 23.2548 50.6302 27.3257 50.6302C31.3965 50.6302 34.6758 47.3666 34.6758 43.3151C34.6758 39.2637 31.3965 36 27.3257 36C23.2548 36 19.9755 39.2637 19.9755 43.3151Z" fill="#a3e635"/>
<path d="M33.6581 52.5434C31.8488 53.7813 29.7003 54.4566 27.3257 54.4566C24.951 54.4566 22.8025 53.7813 20.9932 52.5434C17.3747 54.5691 15 58.283 15 62.672V64.135C15 65.8232 16.357 67.0611 17.9401 67.0611H33.7712V66.3859C33.7712 62.4469 35.2412 58.9582 37.6159 56.2572C36.7112 54.7942 35.2412 53.5563 33.6581 52.5434Z" fill="#a3e635"/>
<path d="M72.7836 50.6302C76.8544 50.6302 80.1337 47.3666 80.1337 43.3151C80.1337 39.2637 76.8544 36 72.7836 36C68.7127 36 65.4334 39.2637 65.4334 43.3151C65.4334 47.3666 68.7127 50.6302 72.7836 50.6302Z" fill="#a3e635"/>
<path d="M79.116 52.5434C77.3067 53.7813 75.1582 54.4566 72.7836 54.4566C70.4089 54.4566 68.2604 53.7813 66.4511 52.5434C64.868 53.4437 63.398 54.6817 62.3803 56.2572C64.7549 58.9582 66.225 62.5595 66.225 66.4984V67.1736H82.0561C83.7523 67.1736 84.9961 65.8232 84.9961 64.2476V62.7846C85.1092 58.3955 82.7345 54.5691 79.116 52.5434Z" fill="#a3e635"/>
<path d="M50.0546 54.4566C54.1255 54.4566 57.4048 51.1929 57.4048 47.1415C57.4048 43.09 54.1255 39.8264 50.0546 39.8264C45.9837 39.8264 42.7044 43.09 42.7044 47.1415C42.7044 51.1929 45.9837 54.4566 50.0546 54.4566Z" fill="#a3e635"/>
<path d="M56.387 56.3698C54.5778 57.6077 52.4293 58.283 50.0546 58.283C47.6799 58.283 45.5314 57.6077 43.7222 56.3698C40.1036 58.3955 37.729 62.1093 37.729 66.4984V68.074C37.729 69.7621 39.0859 71 40.669 71H59.3271C61.0233 71 62.2672 69.6495 62.2672 68.074V66.4984C62.3803 62.1093 60.0056 58.3955 56.387 56.3698Z" fill="#a3e635"/>
<circle cx="50" cy="50" r="49" stroke="#a3e635" stroke-width="2"/>
</g>
</g>
<defs>
<clipPath id="clip0_116_3983">
<rect width="100" height="100" fill="white"/>
</clipPath>
</defs>
</svg>
