<svg width="100" height="100" viewBox="0 0 100 100" fill="none" xmlns="http://www.w3.org/2000/svg">
<path d="M67.2533 39.9467C69.0532 42.994 70.0018 46.4688 70.0001 50.008C69.9983 53.5472 69.0463 57.0211 67.2433 60.0667C72.625 56.52 77.2317 51.975 78.3333 50C77.2317 47.9667 72.6283 43.5 67.2533 39.9467Z" fill="#a3e635"/>
<path d="M50 58.3333C54.6024 58.3333 58.3333 54.6023 58.3333 50C58.3333 45.3976 54.6024 41.6666 50 41.6666C45.3976 41.6666 41.6667 45.3976 41.6667 50C41.6667 54.6023 45.3976 58.3333 50 58.3333Z" fill="#a3e635"/>
<path d="M50 3.33337C40.7702 3.33337 31.7477 6.07033 24.0734 11.1981C16.3991 16.3259 10.4177 23.6143 6.88562 32.1415C3.35353 40.6687 2.42938 50.0518 4.23002 59.1043C6.03066 68.1567 10.4752 76.4719 17.0017 82.9984C23.5281 89.5248 31.8433 93.9694 40.8958 95.77C49.9482 97.5707 59.3313 96.6465 67.8586 93.1144C76.3858 89.5823 83.6741 83.6009 88.8019 75.9267C93.9297 68.2524 96.6667 59.2298 96.6667 50C96.6525 37.6276 91.7314 25.766 82.9827 17.0173C74.2341 8.26867 62.3724 3.34749 50 3.33337ZM92.1817 47.1984C91.8667 47.5548 91.4796 47.8403 91.046 48.0359C90.6125 48.2316 90.1423 48.333 89.6667 48.3334H86.6667V51.6667H89.6667C90.1423 51.6671 90.6125 51.7685 91.046 51.9641C91.4796 52.1598 91.8667 52.4453 92.1817 52.8017C92.49 53.1507 92.7209 53.5611 92.8591 54.0058C92.9973 54.4505 93.0396 54.9194 92.9833 55.3817C91.8124 64.9472 87.4743 73.8457 80.66 80.66C73.8457 87.4743 64.9471 91.8124 55.3817 92.9834C54.9193 93.0408 54.4501 92.9991 54.0052 92.8608C53.5603 92.7226 53.15 92.4911 52.8017 92.1817C52.4452 91.8667 52.1598 91.4796 51.9641 91.0461C51.7684 90.6125 51.6671 90.1424 51.6667 89.6667V86.6667H48.3333V89.6667C48.3329 90.1424 48.2316 90.6125 48.0359 91.0461C47.8402 91.4796 47.5548 91.8667 47.1983 92.1817C46.8484 92.4885 46.4379 92.7184 45.9935 92.8565C45.549 92.9946 45.0805 93.0378 44.6183 92.9834C35.0529 91.8124 26.1543 87.4743 19.34 80.66C12.5257 73.8457 8.18763 64.9472 7.01667 55.3817C6.96039 54.9194 7.00273 54.4505 7.14092 54.0058C7.2791 53.5611 7.50998 53.1507 7.81833 52.8017C8.13332 52.4453 8.52039 52.1598 8.95395 51.9641C9.38751 51.7685 9.85767 51.6671 10.3333 51.6667H13.3333V48.3334H10.3333C9.85767 48.333 9.38751 48.2316 8.95395 48.0359C8.52039 47.8403 8.13332 47.5548 7.81833 47.1984C7.50998 46.8494 7.2791 46.439 7.14092 45.9943C7.00273 45.5496 6.96039 45.0806 7.01667 44.6184C8.18763 35.0529 12.5257 26.1544 19.34 19.3401C26.1543 12.5258 35.0529 8.18767 44.6183 7.01671C45.0806 6.96064 45.5495 7.00309 45.9942 7.14126C46.4389 7.27944 46.8492 7.5102 47.1983 7.81837C47.5548 8.13336 47.8402 8.52043 48.0359 8.95399C48.2316 9.38755 48.3329 9.85771 48.3333 10.3334V13.3334H51.6667V10.3334C51.6671 9.85771 51.7684 9.38755 51.9641 8.95399C52.1598 8.52043 52.4452 8.13336 52.8017 7.81837C53.1507 7.51011 53.5611 7.27929 54.0058 7.14111C54.4505 7.00293 54.9194 6.96053 55.3817 7.01671C64.9471 8.18767 73.8457 12.5258 80.66 19.3401C87.4743 26.1544 91.8124 35.0529 92.9833 44.6184C93.0396 45.0806 92.9973 45.5496 92.8591 45.9943C92.7209 46.439 92.49 46.8494 92.1817 47.1984Z" fill="#a3e635"/>
<path d="M21.6667 49.89C21.6561 49.9064 21.6505 49.9255 21.6505 49.945C21.6505 49.9645 21.6561 49.9836 21.6667 50C22.7683 51.9734 27.375 56.52 32.7567 60.0667C30.9521 57.0189 29.9999 53.542 29.9999 50C29.9999 46.458 30.9521 42.9812 32.7567 39.9333C27.3767 43.4783 22.77 47.9134 21.6667 49.89Z" fill="#a3e635"/>
<path d="M59.585 36.385C53.3293 34.5398 46.674 34.5398 40.4183 36.385C38.2307 37.9188 36.4448 39.9571 35.2119 42.3273C33.979 44.6975 33.3352 47.3299 33.3352 50.0017C33.3352 52.6734 33.979 55.3058 35.2119 57.6761C36.4448 60.0463 38.2307 62.0846 40.4183 63.6183C46.6741 65.4628 53.3292 65.4628 59.585 63.6183C61.7723 62.0845 63.5579 60.0463 64.7906 57.6762C66.0233 55.3062 66.6669 52.674 66.6669 50.0025C66.6669 47.331 66.0233 44.6989 64.7906 42.3288C63.5579 39.9587 61.7723 37.9205 59.585 36.3867V36.385ZM50 61.6667C47.6926 61.6667 45.4369 60.9824 43.5183 59.7005C41.5998 58.4185 40.1044 56.5965 39.2214 54.4647C38.3384 52.3328 38.1073 49.9871 38.5575 47.724C39.0077 45.4608 40.1188 43.382 41.7504 41.7504C43.382 40.1188 45.4608 39.0077 47.7239 38.5575C49.9871 38.1074 52.3328 38.3384 54.4646 39.2214C56.5964 40.1044 58.4185 41.5998 59.7005 43.5184C60.9824 45.4369 61.6667 47.6926 61.6667 50C61.6627 53.093 60.4323 56.0581 58.2452 58.2452C56.0581 60.4323 53.093 61.6627 50 61.6667Z" fill="#a3e635"/>
</svg>
