<svg xmlns="http://www.w3.org/2000/svg" xmlns:xlink="http://www.w3.org/1999/xlink" width="2000" zoomAndPan="magnify" viewBox="0 0 1500 1499.999933" height="2000" preserveAspectRatio="xMidYMid meet" version="1.2"><g id="f01ec5a1f7"><path style=" stroke:none;fill-rule:nonzero;fill:#ea4335;fill-opacity:1;" d="M 657.589844 696.707031 L 76.179688 1377.480469 C 97.328125 1449.460938 164.519531 1499.96875 239.621094 1499.96875 C 272.308594 1499.96875 300.925781 1491.796875 325.441406 1475.449219 L 1040.585938 1066.875 Z M 657.589844 696.707031 "/><path style=" stroke:none;fill-rule:nonzero;fill:#fbbc04;fill-opacity:1;" d="M 1343.007812 600.90625 L 1036.488281 425.125 L 709.578125 748.035156 L 1040.585938 1066.875 L 1347.078125 895.195312 C 1400.210938 866.570312 1437 809.355469 1437 748.035156 C 1432.898438 686.71875 1396.140625 629.5 1343.007812 600.90625 Z M 1343.007812 600.90625 "/><path style=" stroke:none;fill-rule:nonzero;fill:#34a853;fill-opacity:1;" d="M 656.183594 801.152344 L 1036.515625 425.125 L 329.539062 24.550781 C 305.023438 8.203125 272.308594 0.0273438 239.621094 0.0273438 C 162 0.0273438 92.523438 53.171875 76.179688 122.664062 Z M 656.183594 801.152344 "/><path style=" stroke:none;fill-rule:nonzero;fill:#4285f4;fill-opacity:1;" d="M 76.152344 122.664062 C 72.082031 134.910156 72.082031 151.289062 72.082031 167.605469 L 72.082031 1332.566406 C 72.082031 1348.886719 72.082031 1361.160156 76.179688 1377.507812 L 709.636719 748.035156 L 76.152344 122.667969 Z M 76.152344 122.664062 "/></g></svg>