<svg xmlns="http://www.w3.org/2000/svg" xmlns:xlink="http://www.w3.org/1999/xlink" width="2000" zoomAndPan="magnify" viewBox="0 0 1500 1499.999933" height="2000" preserveAspectRatio="xMidYMid meet" version="1.0"><defs><clipPath id="423730feea"><path d="M 750 0 C 335.785156 0 0 335.785156 0 750 C 0 1164.214844 335.785156 1500 750 1500 C 1164.214844 1500 1500 1164.214844 1500 750 C 1500 335.785156 1164.214844 0 750 0 Z M 750 0 " clip-rule="nonzero"/></clipPath></defs><path fill="#000000" d="M 371.464844 0 L 1128.535156 0 C 1134.613281 0 1140.6875 0.148438 1146.761719 0.449219 C 1152.832031 0.746094 1158.894531 1.191406 1164.945312 1.789062 C 1170.996094 2.382812 1177.027344 3.128906 1183.039062 4.019531 C 1189.054688 4.914062 1195.039062 5.953125 1201.003906 7.136719 C 1206.964844 8.324219 1212.894531 9.65625 1218.792969 11.132812 C 1224.691406 12.609375 1230.546875 14.230469 1236.363281 15.996094 C 1242.183594 17.761719 1247.953125 19.667969 1253.675781 21.714844 C 1259.402344 23.761719 1265.070312 25.949219 1270.6875 28.277344 C 1276.304688 30.601562 1281.859375 33.066406 1287.355469 35.664062 C 1292.851562 38.265625 1298.28125 40.996094 1303.640625 43.863281 C 1309.003906 46.726562 1314.292969 49.722656 1319.503906 52.847656 C 1324.71875 55.972656 1329.855469 59.226562 1334.910156 62.601562 C 1339.964844 65.980469 1344.933594 69.480469 1349.816406 73.101562 C 1354.699219 76.722656 1359.488281 80.460938 1364.191406 84.320312 C 1368.890625 88.175781 1373.492188 92.144531 1377.996094 96.226562 C 1382.5 100.308594 1386.902344 104.5 1391.199219 108.800781 C 1395.5 113.097656 1399.6875 117.5 1403.773438 122.003906 C 1407.855469 126.507812 1411.824219 131.109375 1415.679688 135.808594 C 1419.539062 140.507812 1423.277344 145.300781 1426.898438 150.183594 C 1430.519531 155.066406 1434.019531 160.035156 1437.394531 165.089844 C 1440.773438 170.144531 1444.023438 175.28125 1447.152344 180.492188 C 1450.277344 185.707031 1453.273438 190.996094 1456.136719 196.359375 C 1459.003906 201.71875 1461.734375 207.148438 1464.335938 212.644531 C 1466.933594 218.140625 1469.398438 223.695312 1471.722656 229.3125 C 1474.050781 234.929688 1476.238281 240.597656 1478.285156 246.324219 C 1480.332031 252.046875 1482.238281 257.816406 1484.003906 263.636719 C 1485.769531 269.453125 1487.390625 275.308594 1488.867188 281.207031 C 1490.34375 287.105469 1491.675781 293.035156 1492.863281 298.996094 C 1494.046875 304.957031 1495.085938 310.945312 1495.980469 316.960938 C 1496.871094 322.972656 1497.613281 329.003906 1498.210938 335.054688 C 1498.808594 341.105469 1499.253906 347.167969 1499.550781 353.238281 C 1499.851562 359.3125 1500 365.386719 1500 371.464844 L 1500 1128.535156 C 1500 1134.613281 1499.851562 1140.6875 1499.550781 1146.761719 C 1499.253906 1152.832031 1498.808594 1158.894531 1498.210938 1164.945312 C 1497.613281 1170.996094 1496.871094 1177.027344 1495.980469 1183.039062 C 1495.085938 1189.054688 1494.046875 1195.039062 1492.863281 1201.003906 C 1491.675781 1206.964844 1490.34375 1212.894531 1488.867188 1218.792969 C 1487.390625 1224.691406 1485.769531 1230.546875 1484.003906 1236.363281 C 1482.238281 1242.183594 1480.332031 1247.953125 1478.285156 1253.675781 C 1476.238281 1259.402344 1474.050781 1265.070312 1471.722656 1270.6875 C 1469.398438 1276.304688 1466.933594 1281.859375 1464.335938 1287.355469 C 1461.734375 1292.851562 1459.003906 1298.28125 1456.136719 1303.640625 C 1453.273438 1309.003906 1450.277344 1314.292969 1447.152344 1319.503906 C 1444.027344 1324.71875 1440.773438 1329.855469 1437.398438 1334.910156 C 1434.019531 1339.964844 1430.519531 1344.933594 1426.898438 1349.816406 C 1423.277344 1354.699219 1419.539062 1359.488281 1415.679688 1364.1875 C 1411.824219 1368.890625 1407.855469 1373.492188 1403.773438 1377.996094 C 1399.691406 1382.5 1395.5 1386.902344 1391.199219 1391.199219 C 1386.902344 1395.5 1382.5 1399.6875 1377.996094 1403.773438 C 1373.492188 1407.855469 1368.890625 1411.824219 1364.191406 1415.679688 C 1359.488281 1419.539062 1354.699219 1423.277344 1349.816406 1426.898438 C 1344.933594 1430.519531 1339.964844 1434.019531 1334.910156 1437.394531 C 1329.855469 1440.773438 1324.71875 1444.023438 1319.503906 1447.152344 C 1314.292969 1450.277344 1309.003906 1453.273438 1303.640625 1456.136719 C 1298.28125 1459.003906 1292.851562 1461.734375 1287.355469 1464.335938 C 1281.859375 1466.933594 1276.304688 1469.398438 1270.6875 1471.722656 C 1265.070312 1474.050781 1259.402344 1476.238281 1253.675781 1478.285156 C 1247.953125 1480.332031 1242.183594 1482.238281 1236.363281 1484.003906 C 1230.546875 1485.769531 1224.691406 1487.390625 1218.792969 1488.867188 C 1212.894531 1490.34375 1206.964844 1491.675781 1201.003906 1492.863281 C 1195.039062 1494.046875 1189.054688 1495.085938 1183.039062 1495.980469 C 1177.027344 1496.871094 1170.996094 1497.613281 1164.945312 1498.210938 C 1158.894531 1498.808594 1152.832031 1499.253906 1146.761719 1499.550781 C 1140.6875 1499.851562 1134.613281 1500 1128.535156 1500 L 371.464844 1500 C 365.386719 1500 359.3125 1499.851562 353.238281 1499.550781 C 347.167969 1499.253906 341.105469 1498.808594 335.054688 1498.210938 C 329.003906 1497.613281 322.972656 1496.871094 316.960938 1495.980469 C 310.945312 1495.085938 304.957031 1494.046875 298.996094 1492.863281 C 293.035156 1491.675781 287.105469 1490.34375 281.207031 1488.867188 C 275.308594 1487.390625 269.453125 1485.769531 263.636719 1484.003906 C 257.816406 1482.238281 252.046875 1480.332031 246.324219 1478.285156 C 240.597656 1476.238281 234.929688 1474.050781 229.3125 1471.722656 C 223.695312 1469.398438 218.140625 1466.933594 212.644531 1464.335938 C 207.148438 1461.734375 201.71875 1459.003906 196.359375 1456.136719 C 190.996094 1453.273438 185.707031 1450.277344 180.492188 1447.152344 C 175.28125 1444.023438 170.144531 1440.773438 165.089844 1437.394531 C 160.035156 1434.019531 155.066406 1430.519531 150.183594 1426.898438 C 145.300781 1423.277344 140.507812 1419.539062 135.808594 1415.679688 C 131.109375 1411.824219 126.507812 1407.855469 122.003906 1403.773438 C 117.5 1399.6875 113.097656 1395.5 108.800781 1391.199219 C 104.5 1386.902344 100.308594 1382.5 96.226562 1377.996094 C 92.144531 1373.492188 88.175781 1368.890625 84.320312 1364.1875 C 80.460938 1359.488281 76.722656 1354.699219 73.101562 1349.816406 C 69.480469 1344.933594 65.980469 1339.964844 62.601562 1334.910156 C 59.226562 1329.855469 55.972656 1324.71875 52.847656 1319.503906 C 49.722656 1314.292969 46.726562 1309.003906 43.863281 1303.640625 C 40.996094 1298.28125 38.265625 1292.851562 35.664062 1287.355469 C 33.066406 1281.859375 30.601562 1276.304688 28.277344 1270.6875 C 25.949219 1265.070312 23.761719 1259.402344 21.714844 1253.675781 C 19.667969 1247.953125 17.761719 1242.183594 15.996094 1236.363281 C 14.230469 1230.546875 12.609375 1224.691406 11.132812 1218.792969 C 9.65625 1212.894531 8.324219 1206.964844 7.136719 1201.003906 C 5.953125 1195.039062 4.914062 1189.054688 4.019531 1183.039062 C 3.128906 1177.027344 2.382812 1170.996094 1.789062 1164.945312 C 1.191406 1158.894531 0.746094 1152.832031 0.449219 1146.761719 C 0.148438 1140.6875 0 1134.613281 0 1128.535156 L 0 371.464844 C 0 365.386719 0.148438 359.3125 0.449219 353.238281 C 0.746094 347.167969 1.191406 341.105469 1.789062 335.054688 C 2.382812 329.003906 3.128906 322.972656 4.019531 316.960938 C 4.914062 310.945312 5.953125 304.957031 7.136719 298.996094 C 8.324219 293.035156 9.65625 287.105469 11.132812 281.207031 C 12.609375 275.308594 14.230469 269.453125 15.996094 263.636719 C 17.761719 257.816406 19.667969 252.046875 21.714844 246.324219 C 23.761719 240.597656 25.949219 234.929688 28.277344 229.3125 C 30.601562 223.695312 33.066406 218.140625 35.664062 212.644531 C 38.265625 207.148438 40.996094 201.71875 43.863281 196.359375 C 46.726562 190.996094 49.722656 185.707031 52.847656 180.492188 C 55.972656 175.28125 59.226562 170.144531 62.601562 165.089844 C 65.980469 160.035156 69.480469 155.066406 73.101562 150.183594 C 76.722656 145.300781 80.460938 140.507812 84.320312 135.808594 C 88.175781 131.109375 92.144531 126.507812 96.226562 122.003906 C 100.308594 117.5 104.5 113.097656 108.800781 108.800781 C 113.097656 104.5 117.5 100.308594 122.003906 96.226562 C 126.507812 92.144531 131.109375 88.175781 135.808594 84.320312 C 140.507812 80.460938 145.300781 76.722656 150.183594 73.101562 C 155.066406 69.480469 160.035156 65.980469 165.089844 62.601562 C 170.144531 59.226562 175.28125 55.972656 180.492188 52.847656 C 185.707031 49.722656 190.996094 46.726562 196.359375 43.863281 C 201.71875 40.996094 207.148438 38.265625 212.644531 35.664062 C 218.140625 33.066406 223.695312 30.601562 229.3125 28.277344 C 234.929688 25.949219 240.597656 23.761719 246.324219 21.714844 C 252.046875 19.667969 257.816406 17.761719 263.636719 15.996094 C 269.453125 14.230469 275.308594 12.609375 281.207031 11.132812 C 287.105469 9.65625 293.035156 8.324219 298.996094 7.136719 C 304.957031 5.953125 310.945312 4.914062 316.960938 4.019531 C 322.972656 3.128906 329.003906 2.382812 335.054688 1.789062 C 341.105469 1.191406 347.167969 0.746094 353.238281 0.449219 C 359.3125 0.148438 365.386719 0 371.464844 0 Z M 371.464844 0 " fill-opacity="1" fill-rule="nonzero"/><g clip-path="url(#423730feea)"><rect x="-150" width="1800" fill="#000000" y="-149.999993" height="1799.99992" fill-opacity="1"/></g><path stroke-linecap="round" transform="matrix(3.916231, -0.000000000000002428, 0.000000000000002428, 3.916231, 368.531514, 246.520096)" fill="none" stroke-linejoin="miter" d="M 18.499663 18.499586 L 176.225649 18.499586 " stroke="#ffffff" stroke-width="37" stroke-opacity="1" stroke-miterlimit="4"/><path stroke-linecap="round" transform="matrix(2.904835, -2.626557, 2.626557, 2.904835, 339.516743, 1174.165079)" fill="none" stroke-linejoin="miter" d="M 18.500157 18.499894 L 203.915627 18.500006 " stroke="#a3e635" stroke-width="37" stroke-opacity="1" stroke-miterlimit="4"/><path stroke-linecap="round" transform="matrix(3.916231, 0, 0, 3.916231, 368.531514, 1108.471517)" fill="none" stroke-linejoin="miter" d="M 18.499663 18.500021 L 176.225649 18.500021 " stroke="#a3e635" stroke-width="37" stroke-opacity="1" stroke-miterlimit="4"/><path stroke-linecap="round" transform="matrix(2.904835, -2.626557, 2.626557, 2.904835, 417.211413, 802.518487)" fill="none" stroke-linejoin="miter" d="M 18.499925 18.500394 L 203.915396 18.500506 " stroke="#ffffff" stroke-width="37" stroke-opacity="1" stroke-miterlimit="4"/></svg>