<svg width="40" height="40" viewBox="0 0 40 40" fill="none" xmlns="http://www.w3.org/2000/svg">
<g clip-path="url(#clip0_83_409)">
<path d="M6.91248 20.6125C7.25765 20.6125 7.53748 20.3327 7.53748 19.9875C7.53748 19.6424 7.25765 19.3625 6.91248 19.3625C6.5673 19.3625 6.28748 19.6424 6.28748 19.9875C6.28748 20.3327 6.5673 20.6125 6.91248 20.6125Z" fill="#a3e635"/>
<path d="M32.45 19.9875C32.45 20.075 32.4687 20.1563 32.5 20.2313C32.5625 20.3813 32.6812 20.5001 32.8312 20.5626C32.9062 20.5938 32.9875 20.6125 33.075 20.6125C33.1625 20.6125 33.2437 20.5938 33.3187 20.5626C33.4687 20.5001 33.5875 20.3813 33.65 20.2313C33.6812 20.1563 33.7 20.075 33.7 19.9875C33.7 19.6438 33.4187 19.3625 33.075 19.3625C32.7312 19.3625 32.45 19.6438 32.45 19.9875Z" fill="#a3e635"/>
<path d="M34.575 8.21252L33.6062 9.00002C36.6562 12.75 38.0125 17.65 37.3312 22.4438L38.5625 22.6188C39.2937 17.4813 37.8437 12.2313 34.575 8.21252Z" fill="#a3e635"/>
<path d="M6.38125 30.9813C1.2 24.6125 1.2 15.3688 6.38125 9.00002L5.4125 8.21252C-0.1375 15.0375 -0.1375 24.9438 5.4125 31.7688L6.38125 30.9813Z" fill="#a3e635"/>
<path d="M27.125 37.3312L26.65 36.1812C20.725 38.625 13.9625 37.6375 9.00002 33.6L8.21252 34.5687C11.6 37.3187 15.7688 38.75 19.9875 38.75C22.3938 38.75 24.825 38.2812 27.1313 37.3312H27.125Z" fill="#a3e635"/>
<path d="M8.21252 5.4125L9.00002 6.38125C15.3688 1.2 24.6188 1.2 30.9875 6.38125L31.775 5.4125C24.95 -0.1375 15.0375 -0.1375 8.21252 5.4125Z" fill="#a3e635"/>
<path d="M33.2063 7.65623C33.45 7.41248 33.45 7.01873 33.2063 6.77498C32.9625 6.53123 32.5688 6.53123 32.325 6.77498C32.0813 7.01873 32.0813 7.41248 32.325 7.65623C32.5688 7.89998 32.9625 7.89998 33.2063 7.65623Z" fill="#a3e635"/>
<path d="M7.66245 7.65623C7.9062 7.41248 7.9062 7.01873 7.66245 6.77498C7.4187 6.53123 7.02495 6.53123 6.7812 6.77498C6.53745 7.01873 6.53745 7.41248 6.7812 7.65623C7.02495 7.89998 7.4187 7.89998 7.66245 7.65623Z" fill="#a3e635"/>
<path d="M6.7812 32.3188C6.53745 32.5625 6.53745 32.9563 6.7812 33.2C7.02495 33.4438 7.4187 33.4438 7.66245 33.2C7.9062 32.9563 7.9062 32.5625 7.66245 32.3188C7.4187 32.075 7.02495 32.075 6.7812 32.3188Z" fill="#a3e635"/>
<path d="M7.66877 18.2125C8.44377 12.775 12.7813 8.44375 18.2125 7.66875L18.0375 6.4375C12.0563 7.2875 7.28127 12.0625 6.43127 18.0437L7.66252 18.2187L7.66877 18.2125Z" fill="#a3e635"/>
<path d="M18.0375 33.6187L18.2125 32.3875C12.775 31.6125 8.4375 27.275 7.66875 21.8438L6.4375 22.0187C7.2875 28 12.0625 32.7688 18.0437 33.6187H18.0375Z" fill="#a3e635"/>
<path d="M22.0187 6.4313L21.8438 7.66255C27.2812 8.43755 31.6187 12.775 32.3875 18.2063L33.6187 18.0313C32.7688 12.05 27.9938 7.2813 22.0125 6.42505L22.0187 6.4313Z" fill="#a3e635"/>
<path d="M19.9938 6.28748C19.65 6.28748 19.3688 6.56873 19.3688 6.91248C19.3688 6.99998 19.3875 7.08123 19.4188 7.15623C19.4813 7.30623 19.6 7.42498 19.75 7.48748C19.825 7.51873 19.9063 7.53748 19.9938 7.53748C20.0813 7.53748 20.1625 7.51873 20.2375 7.48748C20.3875 7.42498 20.5063 7.30623 20.5688 7.15623C20.6 7.08123 20.6188 6.99998 20.6188 6.91248C20.6188 6.56873 20.3375 6.28748 19.9938 6.28748Z" fill="#a3e635"/>
<path d="M19.9938 32.45C19.65 32.45 19.3688 32.7312 19.3688 33.075C19.3688 33.1625 19.3875 33.2437 19.4188 33.3187C19.4813 33.4687 19.6 33.5875 19.75 33.65C19.825 33.6812 19.9063 33.7 19.9938 33.7C20.0813 33.7 20.1625 33.6812 20.2375 33.65C20.3875 33.5875 20.5063 33.4687 20.5688 33.3187C20.6 33.2437 20.6188 33.1625 20.6188 33.075C20.6188 32.7312 20.3375 32.45 19.9938 32.45Z" fill="#a3e635"/>
<path d="M20.6188 31.2C21.3126 31.1625 21.9875 31.0562 22.6375 30.9C22.5625 30.7187 22.5 30.5312 22.4313 30.35C21.8625 30.775 21.2563 31.0625 20.6125 31.175V31.2H20.6188Z" fill="#a3e635"/>
<path d="M24.4063 15.3812C23.225 15.8562 21.95 16.1375 20.6188 16.2062V19.3625H24.975C24.9313 17.9437 24.7313 16.5937 24.4063 15.3812Z" fill="#a3e635"/>
<path d="M27.6188 11.7438C25.7563 10.0188 23.3188 8.92502 20.6188 8.77502V8.80002C22.5313 9.12502 24.1688 10.95 25.175 13.6313C26.0813 13.125 26.9 12.4875 27.6188 11.7438Z" fill="#a3e635"/>
<path d="M19.3688 8.78125C16.6688 8.93125 14.225 10.025 12.3688 11.75C13.0875 12.4937 13.9063 13.1312 14.8125 13.6375C15.8188 10.9562 17.4563 9.13125 19.3688 8.80625V8.78125Z" fill="#a3e635"/>
<path d="M19.3688 31.175C17.4563 30.85 15.8188 29.025 14.8125 26.3438C13.9063 26.85 13.0875 27.4875 12.3688 28.2312C14.2313 29.9562 16.6688 31.05 19.3688 31.2V31.175Z" fill="#a3e635"/>
<path d="M19.3688 10.0875C17.9813 10.45 16.7563 12 15.9563 14.1938C17.0188 14.6313 18.1688 14.8938 19.3688 14.9625V10.0875Z" fill="#a3e635"/>
<path d="M20.6188 10.0875V14.9625C21.8188 14.8938 22.9688 14.6313 24.0313 14.1938C23.2313 12 22.0063 10.4563 20.6188 10.0875Z" fill="#a3e635"/>
<path d="M19.3687 16.2125C18.0375 16.1437 16.7625 15.8625 15.5812 15.3875C15.2562 16.6 15.0562 17.95 15.0125 19.3687H19.3687V16.2125Z" fill="#a3e635"/>
<path d="M21.2875 25.0875C21.0688 25.0625 20.8438 25.0313 20.6188 25.0188V29.8938C21.1063 29.7626 21.5813 29.4813 22.0188 29.0813C21.7313 28.075 21.5188 27.0438 21.3938 25.9876L21.2875 25.0875Z" fill="#a3e635"/>
<path d="M19.3688 25.0188C18.1688 25.0875 17.0188 25.35 15.9563 25.7875C16.7563 27.9813 17.9813 29.5251 19.3688 29.8938V25.0188Z" fill="#a3e635"/>
<path d="M19.3687 20.6125H15.0125C15.0562 22.0313 15.2562 23.3813 15.5812 24.5938C16.7625 24.1188 18.0375 23.8375 19.3687 23.7688V20.6125Z" fill="#a3e635"/>
<path d="M24.975 20.6125H20.6188V23.7688C20.8813 23.7813 21.1375 23.8126 21.3938 23.8438C21.5563 23.4563 21.85 23.125 22.2375 22.9188L24.925 21.4938C24.95 21.2 24.9688 20.9125 24.975 20.6125Z" fill="#a3e635"/>
<path d="M11.4937 27.3376C12.35 26.4626 13.3312 25.7125 14.4187 25.1313C14.0375 23.7688 13.8063 22.2438 13.7625 20.6125H8.78125C8.925 23.1813 9.91875 25.5126 11.4937 27.3376Z" fill="#a3e635"/>
<path d="M14.425 14.85C13.3375 14.2688 12.35 13.525 11.5 12.6438C9.91873 14.4688 8.92498 16.8 8.78748 19.3688H13.7687C13.8187 17.7375 14.0437 16.2125 14.425 14.85Z" fill="#a3e635"/>
<path d="M28.9437 19.3688L29.7062 18.9625C30.1562 18.725 30.675 18.6938 31.15 18.85C30.9125 16.4875 29.9563 14.3438 28.4875 12.6438C27.6313 13.5188 26.65 14.2688 25.5625 14.85C25.9438 16.2125 26.175 17.7375 26.2187 19.3688H28.9437Z" fill="#a3e635"/>
<path d="M30.1875 38.4875C30.2937 38.5625 30.4187 38.6 30.5437 38.6C30.6687 38.6 30.7937 38.5625 30.9 38.4875C35.1062 35.575 37.8625 30.95 38.475 25.8063L38.6187 24.6188C38.65 24.3625 38.5187 24.1188 38.2937 24L30.8437 20.0563C30.6624 19.9625 30.4437 19.9625 30.2624 20.0563L22.8125 24C22.5875 24.1188 22.4562 24.3688 22.4875 24.6188L22.6312 25.8063C22.8812 27.9 23.4874 29.9 24.3937 31.7375C23.5749 32.0438 22.725 32.2625 21.8562 32.3813L22.0312 33.6125C23.05 33.4688 24.0375 33.2063 24.9875 32.8375C26.2874 35.0625 28.0562 36.9938 30.2062 38.4813L30.1875 38.4875ZM27.8062 28.6438L29.7375 30.0938L33.1062 24.475L34.1687 25.1125L30.4437 31.3188C30.3562 31.4688 30.2 31.575 30.0312 31.6063C29.9937 31.6125 29.95 31.6188 29.9125 31.6188C29.7812 31.6188 29.6499 31.575 29.5374 31.4938L27.0562 29.6313L27.8 28.6375L27.8062 28.6438Z" fill="#a3e635"/>
</g>
<defs>
<clipPath id="clip0_83_409">
<rect width="40" height="40" fill="white"/>
</clipPath>
</defs>
</svg>
