<svg width="40" height="40" viewBox="0 0 40 40" fill="none" xmlns="http://www.w3.org/2000/svg">
<g clip-path="url(#clip0_83_391)">
<path d="M30.2426 8.18184C28.9092 3.75759 24.8486 0.606079 20.0001 0.606079C12.9698 0.606079 7.87894 7.27275 9.57591 14C10.485 10.4849 13.0911 7.69699 16.485 6.54547C17.3335 5.63638 18.6062 5.03032 20.0001 5.03032C21.3941 5.03032 22.6062 5.63638 23.5153 6.54547C24.6668 6.96972 25.6971 7.51517 26.6668 8.30305C27.8789 8.00002 29.0911 8.00002 30.2426 8.18184Z" fill="#a3e635"/>
<path d="M20.0001 13.6364C22.1088 13.6364 23.8182 11.9269 23.8182 9.81818C23.8182 7.70946 22.1088 6 20.0001 6C17.8913 6 16.1819 7.70946 16.1819 9.81818C16.1819 11.9269 17.8913 13.6364 20.0001 13.6364Z" fill="#a3e635"/>
<path d="M20.0001 35.0303C18.6062 35.0303 17.3941 34.4242 16.485 33.5152C15.3334 33.0909 14.2425 32.5455 13.3334 31.7576C12.1819 31.9394 10.9092 32 9.75769 31.8182C11.091 36.2424 15.1516 39.3939 20.0001 39.3939C27.091 39.3939 32.1213 32.7273 30.3638 26C29.4547 29.5152 26.8486 32.303 23.4547 33.5152C22.6062 34.4242 21.3941 35.0303 20.0001 35.0303Z" fill="#a3e635"/>
<path d="M20.0001 34C22.1088 34 23.8182 32.2906 23.8182 30.1818C23.8182 28.0731 22.1088 26.3636 20.0001 26.3636C17.8913 26.3636 16.1819 28.0731 16.1819 30.1818C16.1819 32.2906 17.8913 34 20.0001 34Z" fill="#a3e635"/>
<path d="M25.9999 9.57579C29.515 10.4849 32.3029 13.0909 33.4544 16.4849C34.3635 17.3334 34.9696 18.6061 34.9696 20C34.9696 21.394 34.3635 22.6061 33.4544 23.5152C33.0302 24.6667 32.4847 25.697 31.6968 26.6667C31.9393 27.8788 31.9393 29.0909 31.7575 30.2425C36.2423 28.9091 39.3938 24.7879 39.3938 20C39.3938 12.9697 32.7272 7.87882 25.9999 9.57579Z" fill="#a3e635"/>
<path d="M30.1817 23.8182C32.2904 23.8182 33.9999 22.1088 33.9999 20.0001C33.9999 17.8913 32.2904 16.1819 30.1817 16.1819C28.073 16.1819 26.3635 17.8913 26.3635 20.0001C26.3635 22.1088 28.073 23.8182 30.1817 23.8182Z" fill="#a3e635"/>
<path d="M14 30.3637C10.4849 29.4546 7.69699 26.8485 6.54547 23.4546C5.63638 22.6061 5.03032 21.3334 5.03032 19.9394C5.03032 18.5455 5.63638 17.3334 6.54547 16.4243C6.96972 15.2728 7.51517 14.2425 8.30305 13.2728C8.06062 12.0607 8.06062 10.8485 8.24244 9.69702C3.8182 11.091 0.606079 15.1516 0.606079 20.0001C0.606079 27.091 7.27275 32.1213 14 30.3637Z" fill="#a3e635"/>
<path d="M9.81806 23.8182C11.9268 23.8182 13.6362 22.1088 13.6362 20.0001C13.6362 17.8913 11.9268 16.1819 9.81806 16.1819C7.70934 16.1819 5.99988 17.8913 5.99988 20.0001C5.99988 22.1088 7.70934 23.8182 9.81806 23.8182Z" fill="#a3e635"/>
</g>
<defs>
<clipPath id="clip0_83_391">
<rect width="40" height="40" fill="white"/>
</clipPath>
</defs>
</svg>
