<svg width="40" height="40" viewBox="0 0 40 40" fill="none" xmlns="http://www.w3.org/2000/svg">
<g clip-path="url(#clip0_83_380)">
<path d="M15.4167 24.8041C15.4167 23.8976 15.6855 23.0115 16.1891 22.2578C16.6928 21.504 17.4086 20.9166 18.2461 20.5697C19.0836 20.2228 20.0051 20.132 20.8942 20.3089C21.7833 20.4857 22.5999 20.9222 23.2409 21.5632C23.8819 22.2042 24.3185 23.0209 24.4953 23.91C24.6721 24.799 24.5814 25.7206 24.2345 26.5581C23.8876 27.3956 23.3001 28.1114 22.5464 28.615C21.7927 29.1186 20.9065 29.3875 20 29.3875C18.7845 29.3875 17.6187 28.9046 16.7591 28.045C15.8996 27.1855 15.4167 26.0197 15.4167 24.8041ZM26.3792 28.475L25.5459 27.3583L24.7125 28.4541C24.1552 29.1785 23.439 29.7652 22.619 30.169C21.7991 30.5727 20.8973 30.7826 19.9834 30.7826C19.0694 30.7826 18.1677 30.5727 17.3477 30.169C16.5277 29.7652 15.8115 29.1785 15.2542 28.4541L14.4209 27.3583L13.5875 28.475C12.6029 29.8295 12.076 31.4628 12.0834 33.1375V37.3333H27.9167V33.1375C27.9192 31.461 27.3864 29.8275 26.3959 28.475H26.3792ZM31.3375 10.1916L27.2125 2.66663L25.3834 3.66663L28.9625 10.1916H11.0459L14.6167 3.66663L12.7875 2.66663L8.66253 10.1916H2.7417V18.1666H6.25003L9.08753 33.4333H10V33.1375C9.99809 31.0181 10.6741 28.9536 11.9292 27.2458L13.3709 25.275C13.3709 25.1166 13.3709 24.9625 13.3709 24.8041C13.3062 23.8912 13.4302 22.9748 13.7351 22.1119C14.04 21.2491 14.5193 20.4582 15.1431 19.7886C15.7669 19.119 16.522 18.585 17.3611 18.2199C18.2003 17.8548 19.1057 17.6663 20.0209 17.6663C20.936 17.6663 21.8414 17.8548 22.6806 18.2199C23.5198 18.585 24.2748 19.119 24.8986 19.7886C25.5225 20.4582 26.0018 21.2491 26.3067 22.1119C26.6116 22.9748 26.7355 23.8912 26.6709 24.8041C26.6709 24.9625 26.6709 25.1166 26.6709 25.275L28.1125 27.2458C29.3528 28.9587 30.0141 31.0227 30 33.1375V33.4333H30.9209L33.75 18.1666H37.2459V10.1916H31.3375Z" fill="#a3e635"/>
</g>
<defs>
<clipPath id="clip0_83_380">
<rect width="40" height="40" fill="white"/>
</clipPath>
</defs>
</svg>
