<svg width="40" height="40" viewBox="0 0 40 40" fill="none" xmlns="http://www.w3.org/2000/svg">
<g clip-path="url(#clip0_83_331)">
<path fill-rule="evenodd" clip-rule="evenodd" d="M12.7742 4.84634C12.9909 5.07288 12.987 5.43142 12.7644 5.65205C12.5438 5.87268 12.1852 5.87662 11.9587 5.6619L10.7117 4.41492C10.5994 4.30855 10.5364 4.1608 10.5344 4.00518C10.5324 3.84956 10.5935 3.69984 10.7018 3.5915C10.8122 3.48118 10.9619 3.42012 11.1175 3.42208C11.2711 3.42405 11.4209 3.48709 11.5272 3.59938L12.7742 4.84634ZM7.40597 13.4295C7.25035 13.4334 7.09866 13.3763 6.98638 13.268C6.87409 13.1577 6.81106 13.0099 6.81106 12.8543C6.81106 12.6987 6.87409 12.549 6.98638 12.4406C7.09867 12.3323 7.25035 12.2732 7.40597 12.2771H9.17102C9.32664 12.2732 9.47636 12.3323 9.58864 12.4406C9.70092 12.549 9.76396 12.6987 9.76396 12.8543C9.76396 13.0099 9.70093 13.1577 9.58864 13.268C9.47635 13.3763 9.32664 13.4334 9.17102 13.4295H7.40597ZM30.7142 13.5536C30.395 13.5536 30.137 13.2955 30.137 12.9764C30.137 12.6593 30.3951 12.4012 30.7142 12.4012H32.4792C32.7964 12.4012 33.0544 12.6593 33.0544 12.9764C33.0544 13.2956 32.7964 13.5536 32.4792 13.5536H30.7142ZM28.0095 5.74857C27.7849 5.97314 27.4204 5.97314 27.1939 5.74857C26.9693 5.524 26.9693 5.15955 27.1939 4.93499L28.4409 3.68604C28.5473 3.57375 28.695 3.51071 28.8506 3.50875C29.0063 3.50678 29.156 3.56785 29.2643 3.67619C29.3746 3.78651 29.4357 3.93622 29.4337 4.09184C29.4318 4.2455 29.3687 4.39521 29.2564 4.50159L28.0095 5.74857ZM20.5791 2.14167C20.5831 2.2973 20.524 2.44898 20.4156 2.56127C20.3073 2.67355 20.1576 2.73659 20.0019 2.73659C19.8463 2.73659 19.6986 2.67355 19.5883 2.56127C19.4799 2.44898 19.4228 2.2973 19.4267 2.14167V0.380561C19.4228 0.22494 19.4799 0.0732513 19.5883 -0.0390308C19.6986 -0.151318 19.8463 -0.214355 20.0019 -0.214355C20.1576 -0.214355 20.3073 -0.151318 20.4156 -0.0390308C20.524 0.0732564 20.5831 0.22494 20.5791 0.380561V2.14364V2.14167ZM18.9756 26.6592V26.9665C18.9776 27.1359 19.1135 27.2718 19.2829 27.2738H20.5988C20.7682 27.2718 20.9042 27.1339 20.9061 26.9665V26.6592H18.9756ZM23.6778 22.2958H16.2041V22.81C16.206 23.0936 16.4365 23.3221 16.7202 23.3241H23.1616C23.4453 23.3221 23.6757 23.0936 23.6777 22.81L23.6778 22.2958ZM17.2954 24.4765V24.9907C17.2973 25.2743 17.5259 25.5048 17.8095 25.5068H22.0724C22.3561 25.5048 22.5846 25.2743 22.5865 24.9907V24.4765H17.2954ZM23.997 21.1414C24.1428 19.008 25.1002 17.763 25.9788 16.6165L26.0733 16.4924L26.0753 16.4944C26.093 16.4885 26.1088 16.4806 26.1265 16.4727C27.2572 15.9054 28.6125 16.0275 29.6231 16.7879C30.6337 17.5483 31.1281 18.8169 30.8956 20.0599C30.8444 20.3476 31.0158 20.6292 31.2955 20.714C33.5492 21.4015 35.0916 23.4778 35.1014 25.8336C35.1093 28.1896 33.5826 30.2777 31.3349 30.983C31.1241 31.0323 30.9587 31.1938 30.9055 31.4026C30.8523 31.6134 30.9212 31.834 31.0828 31.9778C32.2509 33.0042 32.5366 34.7101 31.7664 36.0634C30.9981 37.4148 29.3847 38.0412 27.9053 37.5606C27.6138 37.468 27.2986 37.6197 27.1922 37.9073C26.6505 39.3611 25.2046 40.2712 23.6602 40.1353C22.1157 39.9994 20.8511 38.8489 20.5733 37.3223V37.3065C21.048 37.7675 21.6173 38.1181 22.2418 38.3348C22.3876 38.39 22.5471 38.386 22.687 38.321C22.8288 38.258 22.9372 38.1398 22.9904 37.994C23.0436 37.8483 23.0357 37.6887 22.9687 37.5488C22.9017 37.409 22.7816 37.3026 22.6338 37.2533C22.0034 37.0504 21.4539 36.6466 21.0717 36.1049C20.7703 35.6242 20.6048 35.0687 20.593 34.5014L20.5871 34.1271V34.1133L20.5142 28.6664V28.6644C20.5142 28.5817 20.4945 28.4989 20.459 28.4241H20.5989C21.4046 28.4221 22.0586 27.7681 22.0586 26.9624V26.6551H22.0724C22.9923 26.6531 23.7369 25.9085 23.7389 24.9885V24.3739C24.3929 24.1316 24.8283 23.5071 24.8303 22.8098V21.7184C24.8303 21.5648 24.7692 21.419 24.6608 21.3106C24.5525 21.2023 24.4067 21.1412 24.2531 21.1412L23.997 21.1414ZM17.0331 21.1414H19.3636V15.3284C17.8211 15.0487 16.6982 13.7051 16.6982 12.1371C16.6943 11.9815 16.7534 11.8298 16.8617 11.7175C16.9701 11.6072 17.1198 11.5422 17.2754 11.5422C17.431 11.5422 17.5788 11.6072 17.6891 11.7175C17.7974 11.8298 17.8546 11.9815 17.8506 12.1371C17.8506 13.2915 18.7864 14.2272 19.9407 14.2272C21.095 14.2272 22.0308 13.2915 22.0308 12.1371C22.0268 11.9815 22.084 11.8298 22.1923 11.7175C22.3026 11.6072 22.4504 11.5422 22.606 11.5422C22.7616 11.5422 22.9113 11.6072 23.0197 11.7175C23.128 11.8298 23.1871 11.9815 23.1832 12.1371C23.1832 13.7052 22.0603 15.0487 20.5178 15.3284V21.1435H22.8483C22.9921 18.6259 24.0755 17.2154 25.0664 15.9214C25.8504 14.901 26.5694 13.9614 26.5694 12.5746C26.5694 8.91249 23.6027 5.94555 19.9404 5.94555C16.2803 5.94555 13.3114 8.91224 13.3114 12.5746C13.3114 13.9614 14.0324 14.8991 14.8145 15.9214C15.8073 17.2157 16.8888 18.6242 17.0326 21.1435L17.0331 21.1414ZM27.9089 24.8665C28.3324 24.9217 28.7067 25.166 28.9312 25.5284L28.9509 25.5639L28.9568 25.5718H28.9549C29.1676 25.95 29.1932 26.4031 29.0258 26.803C28.9017 27.0965 29.0396 27.4353 29.3331 27.5575C29.6266 27.6816 29.9635 27.5417 30.0876 27.2501C30.318 26.6966 30.3496 26.082 30.1723 25.5087L31.563 24.6853C31.8368 24.5238 31.9275 24.1712 31.7659 23.8974C31.6044 23.6235 31.2518 23.5329 30.978 23.6945L29.5931 24.5139C29.1873 24.0786 28.6416 23.8008 28.0526 23.7279C27.7374 23.6885 27.4498 23.9111 27.4104 24.2263C27.371 24.5396 27.5937 24.8272 27.9089 24.8665ZM10.3154 25.5619C10.1952 25.8554 9.86032 25.9973 9.56679 25.8771C9.27328 25.7589 9.13341 25.424 9.25161 25.1305C9.47617 24.5789 9.88591 24.1239 10.4119 23.8422L9.97654 22.2958C9.89184 21.9885 10.0691 21.6713 10.3764 21.5846C10.6818 21.4999 11.0009 21.6772 11.0856 21.9845L11.5229 23.5427V23.5407C11.7238 23.5348 11.9248 23.5525 12.1198 23.5919C12.5059 23.6688 12.8684 23.8342 13.1796 24.0765C13.4081 24.2755 13.4436 24.6202 13.2565 24.8606C13.0693 25.1009 12.7285 25.1561 12.4764 24.9827C12.1296 24.7168 11.6786 24.6262 11.255 24.7384C10.8315 24.8507 10.4828 25.1561 10.3153 25.5599L10.3154 25.5619ZM14.9092 33.4789V33.4809C15.0629 33.4947 15.2047 33.5715 15.3032 33.6936C15.3997 33.8138 15.4431 33.9694 15.4234 34.125C15.4037 34.2787 15.3229 34.4186 15.1988 34.5112C15.0747 34.6037 14.9191 34.6431 14.7654 34.6195C14.4069 34.5742 14.0622 34.4461 13.7608 34.2472C13.6229 34.1546 13.4968 34.0502 13.3806 33.932L12.1809 34.6432L12.1829 34.6412C12.0509 34.7239 11.8913 34.7476 11.7416 34.7121C11.5919 34.6747 11.4619 34.5782 11.3831 34.4462C11.3043 34.3122 11.2826 34.1526 11.324 34.0029C11.3634 33.8532 11.4619 33.7271 11.5958 33.6503L12.8034 32.9352C12.6556 32.4211 12.6871 31.8734 12.894 31.381C13.0161 31.0875 13.3549 30.9496 13.6485 31.0717C13.942 31.1958 14.0799 31.5326 13.9558 31.8262C13.8159 32.1611 13.8336 32.5413 14.007 32.8604L14.0208 32.884C14.0267 32.8959 14.0346 32.9077 14.0385 32.9195L14.0405 32.9175C14.2316 33.2268 14.5507 33.4316 14.9092 33.4789ZM24.8217 32.6712V32.6732C25.2571 32.6141 25.6964 32.7599 26.0057 33.0711C26.3169 33.3824 26.4647 33.8197 26.4036 34.2551C26.3741 34.5643 26.5927 34.8421 26.9 34.8835C27.2093 34.9229 27.493 34.7121 27.5442 34.4068C27.5974 34.0167 27.5599 33.6188 27.4338 33.2465C27.3688 33.0554 27.2822 32.8722 27.1758 32.7028L28.3065 31.5464V31.5444C28.4188 31.4361 28.4799 31.2884 28.4799 31.1327C28.4799 30.9791 28.4168 30.8294 28.3065 30.721C28.1942 30.6127 28.0445 30.5555 27.8909 30.5595C27.7353 30.5634 27.5875 30.6304 27.4831 30.7447L26.3622 31.8911C26.1928 31.7867 26.0135 31.702 25.8283 31.639C25.4541 31.5129 25.0581 31.4755 24.6681 31.5287C24.5124 31.5444 24.3706 31.6232 24.2741 31.7454C24.1775 31.8655 24.1342 32.0231 24.1559 32.1768C24.1756 32.3304 24.2583 32.4703 24.3824 32.5629C24.5085 32.6555 24.6661 32.6929 24.8197 32.6693L24.8217 32.6712ZM19.3829 29.9212C19.4262 30.6107 19.2588 31.2963 18.8983 31.8872C18.5161 32.4289 17.9684 32.8328 17.3361 33.0356C17.1884 33.0849 17.0682 33.1913 17.0012 33.3311C16.9362 33.471 16.9264 33.6306 16.9795 33.7763C17.0327 33.9201 17.1411 34.0383 17.2829 34.1033C17.4228 34.1664 17.5823 34.1723 17.7281 34.1152C18.3664 33.8965 18.9475 33.534 19.4262 33.0573L19.44 34.123C19.436 34.2668 19.44 34.4087 19.4459 34.5466L19.4754 36.7154C19.4577 37.4719 19.1898 38.1988 18.7131 38.7839C18.2285 39.3906 17.5627 39.8279 16.8141 40.0289C15.1003 40.4879 13.3175 39.5719 12.695 37.9112C12.5866 37.6236 12.2734 37.47 11.9799 37.5645C10.5005 38.0432 8.88713 37.4168 8.11888 36.0654C7.35063 34.714 7.63625 33.0081 8.80245 31.9798C8.96596 31.8379 9.03491 31.6153 8.98172 31.4065C8.92853 31.1977 8.76109 31.0342 8.55031 30.9869C6.30264 30.2817 4.77593 28.1936 4.78581 25.8355C4.79369 23.4795 6.3381 21.4032 8.59171 20.7159C8.87144 20.6312 9.04282 20.3514 8.98963 20.0638C8.75521 18.809 9.25951 17.5286 10.2878 16.7721C11.3141 16.0137 12.6852 15.9093 13.8159 16.5042L13.9046 16.6204C14.7832 17.7649 15.7386 19.0119 15.8863 21.1454H15.6302C15.4785 21.1454 15.3308 21.2064 15.2225 21.3128C15.1141 21.4211 15.055 21.5689 15.055 21.7206V22.81C15.057 23.5073 15.4923 24.1298 16.1464 24.3721V24.9907C16.1464 25.9106 16.893 26.6553 17.8129 26.6572H17.8228V26.9646C17.8228 27.7722 18.4748 28.4262 19.2825 28.4282H19.4223C19.3849 28.505 19.3652 28.5917 19.3652 28.6803L19.381 29.8879C19.3829 29.8977 19.3829 29.9094 19.3829 29.9212Z" fill="#a3e635"/>
</g>
<defs>
<clipPath id="clip0_83_331">
<rect width="40" height="40" fill="white"/>
</clipPath>
</defs>
</svg>
