<svg width="40" height="40" viewBox="0 0 40 40" fill="none" xmlns="http://www.w3.org/2000/svg">
<g clip-path="url(#clip0_83_368)">
<path d="M14.842 12.4062L11.8255 7.41832L8.80898 12.4062C8.87755 12.4235 8.94439 12.4435 9.01297 12.4678C9.77599 12.7412 10.6319 13.7126 11.8255 13.7126C12.598 13.7126 13.2256 13.3089 13.8064 12.9322C14.177 12.6909 14.48 12.4921 14.842 12.4062ZM31.3029 12.4062L28.2838 7.41832L25.2673 12.4062C25.3359 12.4235 25.4053 12.4435 25.4713 12.4678C26.2343 12.7412 27.0902 13.7126 28.2838 13.7126C29.059 13.7126 29.684 13.3089 30.2673 12.9322C30.6388 12.6909 30.9392 12.4921 31.3029 12.4062ZM24.4479 12.4183L27.9861 6.57197C28.1163 6.34801 28.4435 6.34107 28.5815 6.56936L32.1197 12.4157C32.7673 12.6024 33.0651 13.2352 33.0651 14.0025C33.0651 16.6432 30.9244 18.7838 28.2838 18.7838C25.6458 18.7838 23.5052 16.6432 23.5052 14.0025C23.5052 13.6952 23.5494 13.4392 23.6258 13.2247C23.7812 12.7925 24.0859 12.5286 24.4479 12.4183ZM28.2864 2.881C28.9435 2.881 29.5338 3.22561 29.8689 3.75947C31.1683 3.46433 32.4696 3.47909 33.5329 4.51207C34.1015 5.06329 34.9574 4.19957 34.3819 3.63881C32.0859 1.40964 29.0156 2.21433 26.3064 3.0928C25.2899 3.42527 24.1414 3.79679 23.039 3.78898C22.9704 4.49732 22.6553 5.13273 22.1831 5.61016C23.559 5.75513 25.0277 5.31242 26.4253 4.85235C26.3619 3.78117 27.2135 2.881 28.2864 2.881ZM29.1137 3.91919C28.3775 3.18308 27.1154 3.70738 27.1154 4.74558C27.1154 5.78638 28.3775 6.30808 29.1137 5.57457C29.5711 5.11711 29.5711 4.37666 29.1137 3.91919ZM11.8246 3.57718C10.7864 3.57718 10.2621 4.83933 10.9982 5.57544C11.7343 6.30895 12.9965 5.78725 12.9965 4.74645C12.9965 4.09888 12.4722 3.57718 11.8246 3.57718ZM10.506 3.427C11.7144 2.22127 13.7838 3.14662 13.6874 4.85148C15.0824 5.31155 16.552 5.75426 17.9296 5.60929C17.4548 5.13186 17.1397 4.49732 17.0737 3.78811C15.7526 3.79766 14.4288 3.27857 13.2109 2.9027C10.6571 2.11537 7.86106 1.56936 5.73085 3.63881C5.15272 4.19957 6.01123 5.06329 6.5772 4.51207C7.64231 3.47822 8.94439 3.46346 10.2439 3.75947C10.3185 3.63881 10.4079 3.5277 10.506 3.427ZM7.98866 12.4183L11.5243 6.57197C11.6545 6.34801 11.9843 6.34107 12.1223 6.56936L15.6579 12.4157C16.3072 12.6024 16.605 13.2352 16.605 14.0025C16.605 15.3237 16.0685 16.5173 15.2048 17.3836C13.3376 19.2491 10.3107 19.2491 8.44266 17.3836C7.57894 16.5173 7.04509 15.3237 7.04509 14.0025C7.04509 13.6952 7.08675 13.4392 7.16314 13.2247C7.322 12.7925 7.62668 12.5286 7.98866 12.4183ZM21.6848 1.86971C20.2378 0.422662 17.7526 1.45391 17.7526 3.49905C17.7526 5.54419 20.2378 6.57197 21.6848 5.12579C22.5824 4.22648 22.5824 2.76728 21.6848 1.86971ZM20.6979 23.5772C20.3116 23.2916 19.7994 23.2916 19.4131 23.5772C17.7352 24.8246 15.7491 25.6761 13.8107 26.4287C13.3871 26.5937 13.1241 26.98 13.1241 27.4348C13.1267 30.5103 13.8914 33.1631 15.0824 35.144C16.3524 37.2499 18.0963 38.5893 19.9001 38.8498C20.0034 38.8645 20.1067 38.8645 20.21 38.8498C22.0138 38.5893 23.7586 37.2499 25.0251 35.1414C26.2161 33.1631 26.9835 30.5103 26.9861 27.4348C26.9861 26.98 26.723 26.5937 26.2968 26.4287C24.3619 25.6761 22.3758 24.8246 20.6979 23.5772ZM15.2873 36.6579C13.4513 34.328 12.4357 31.0182 12.4331 27.4357C12.4331 26.6978 12.8637 26.0624 13.5477 25.7899C11.8281 24.4366 10.2656 23.4374 8.50342 21.7664C7.66227 20.9695 7.00516 22.453 7.28554 23.723C7.61279 25.1944 9.19005 26.7178 10.3098 27.8202C10.5433 28.0494 10.3567 28.4452 10.0321 28.4105C3.6371 27.7291 4.33588 21.5624 4.67009 16.7716C4.76384 15.4157 5.07373 12.835 3.42269 12.2907C2.86453 12.1058 2.64231 12.4235 2.54682 12.9331C2.08328 15.3784 0.904461 22.6301 1.25602 25.5902C2.0312 32.1084 9.84196 34.1874 15.2873 36.6579ZM24.822 36.6579C30.2699 34.1874 38.0772 32.1084 38.8524 25.5902C39.2039 22.6301 38.026 15.3784 37.5633 12.9331C37.467 12.4235 37.2482 12.1067 36.69 12.2907C35.039 12.8341 35.3463 15.4157 35.4427 16.7716C35.8289 22.3055 36.2083 27.7534 30.0859 28.4105C29.7534 28.4426 29.5668 28.0485 29.8003 27.8202C30.9227 26.7178 32.4999 25.1944 32.8246 23.723C33.1102 22.4461 32.4479 20.9721 31.6067 21.7664C29.8472 23.4348 28.2847 24.4366 26.5624 25.7899C27.2491 26.0633 27.6796 26.6978 27.6796 27.4357C27.6762 31.0182 26.6597 34.3272 24.822 36.6579ZM20.8802 6.38013C20.3437 6.53291 19.7682 6.53291 19.2317 6.38013V22.8758C19.7482 22.6006 20.3611 22.6006 20.8802 22.8758V6.38013ZM17.3689 30.8333C17.0338 30.5208 17.5069 30.0138 17.8411 30.3237L19.5607 31.9235L22.2456 28.8506C22.546 28.506 23.0677 28.9617 22.7673 29.3055L19.8585 32.6345C19.7256 32.7968 19.4965 32.809 19.3515 32.6735L17.3689 30.8333Z" fill="#a3e635"/>
</g>
<defs>
<clipPath id="clip0_83_368">
<rect width="40" height="40" fill="white"/>
</clipPath>
</defs>
</svg>
