<svg width="42" height="40" viewBox="0 0 42 40" fill="none" xmlns="http://www.w3.org/2000/svg">
<g clip-path="url(#clip0_83_341)">
<path d="M21 4.39536C21.1917 4.39536 21.3475 4.24695 21.3475 4.0646V0.830737C21.3475 0.648413 21.1917 0.5 21 0.5C20.8085 0.5 20.6527 0.648413 20.6527 0.830737V4.0646C20.6527 4.24695 20.8085 4.39536 21 4.39536Z" fill="#a3e635"/>
<path d="M21 34.6045C20.8085 34.6045 20.6527 34.7527 20.6527 34.9353V38.1693C20.6527 38.3519 20.8085 38.5001 21 38.5001C21.1917 38.5001 21.3475 38.3519 21.3475 38.1693V34.9353C21.3475 34.7527 21.1917 34.6045 21 34.6045Z" fill="#a3e635"/>
<path d="M5.1403 19.4997C5.1403 19.3171 4.98449 19.1689 4.79303 19.1689H1.39747C1.206 19.1689 1.05017 19.3171 1.05017 19.4997C1.05017 19.6823 1.206 19.8305 1.39747 19.8305H4.79303C4.98449 19.8305 5.1403 19.6823 5.1403 19.4997Z" fill="#a3e635"/>
<path d="M40.6029 19.1689H37.2074C37.0159 19.1689 36.8601 19.3171 36.8601 19.4997C36.8601 19.6823 37.0159 19.8305 37.2074 19.8305H40.6029C40.7944 19.8305 40.9502 19.6823 40.9502 19.4997C40.9502 19.3171 40.7944 19.1689 40.6029 19.1689Z" fill="#a3e635"/>
<path d="M9.29425 8.8196C9.42978 8.94846 9.65011 8.94805 9.78564 8.8196C9.85127 8.75688 9.88734 8.674 9.88734 8.5855C9.88734 8.49702 9.85127 8.41411 9.78564 8.35183L7.38438 6.06492C7.31673 6.00049 7.22788 5.96826 7.1388 5.96826C7.04995 5.96826 6.96087 6.00049 6.89322 6.06492C6.8276 6.1272 6.7915 6.21052 6.7915 6.29902C6.7915 6.3875 6.8276 6.47041 6.89322 6.53269L9.29425 8.8196Z" fill="#a3e635"/>
<path d="M32.706 30.1806C32.6384 30.1162 32.5493 30.084 32.4602 30.084C32.3713 30.084 32.2823 30.1162 32.2146 30.1806C32.149 30.2429 32.1129 30.3258 32.1129 30.4143C32.1129 30.5028 32.149 30.5861 32.2146 30.6484L34.6156 32.9349C34.7507 33.0637 34.9715 33.0637 35.107 32.9349C35.1727 32.8726 35.2087 32.7897 35.2087 32.7012C35.2087 32.6127 35.1727 32.5294 35.107 32.4671L32.706 30.1806Z" fill="#a3e635"/>
<path d="M9.53983 30.084C9.45098 30.084 9.3619 30.1162 9.29425 30.1806L6.89322 32.4671C6.8276 32.5294 6.7915 32.6127 6.7915 32.7012C6.7915 32.7897 6.8276 32.8726 6.89322 32.9349C7.02447 33.0603 7.25313 33.0603 7.38438 32.9349L9.78564 30.6484C9.85127 30.5861 9.88734 30.5028 9.88734 30.4143C9.88734 30.3258 9.85127 30.2429 9.78564 30.1806C9.71799 30.1162 9.62891 30.084 9.53983 30.084Z" fill="#a3e635"/>
<path d="M32.706 8.8196L35.107 6.53269C35.1727 6.47041 35.2087 6.3875 35.2087 6.29902C35.2087 6.21052 35.1727 6.1272 35.107 6.06492C35.0391 6.00049 34.9503 5.96826 34.8612 5.96826C34.7724 5.96826 34.6833 6.00049 34.6156 6.06492L32.2146 8.35183C32.149 8.41411 32.1129 8.49702 32.1129 8.5855C32.1129 8.674 32.149 8.75732 32.2146 8.8196C32.3504 8.94846 32.5702 8.94805 32.706 8.8196Z" fill="#a3e635"/>
<path d="M14.3453 4.92383C14.4213 5.10125 14.636 5.18586 14.8204 5.11348C14.9106 5.07847 14.9808 5.01211 15.0184 4.92664C15.0561 4.84116 15.0565 4.74688 15.0196 4.66118L14.5832 3.64507C14.5257 3.51084 14.3892 3.42944 14.2456 3.42944C14.1996 3.42944 14.1529 3.43782 14.108 3.45542C14.0181 3.49043 13.9477 3.55681 13.91 3.64229C13.8724 3.72776 13.8719 3.82205 13.9089 3.90774L14.3453 4.92383Z" fill="#a3e635"/>
<path d="M27.6551 34.0762C27.6183 33.9903 27.5486 33.9232 27.4586 33.8876C27.4133 33.8691 27.3655 33.8601 27.3179 33.8601C27.271 33.8601 27.2243 33.8687 27.1799 33.8863C27.0897 33.9215 27.0193 33.9877 26.9817 34.0732C26.944 34.1586 26.9436 34.2531 26.9806 34.3386L27.4171 35.3545C27.4539 35.4404 27.5236 35.5074 27.6134 35.5431C27.7036 35.58 27.8028 35.58 27.8921 35.5444C28.0781 35.4722 28.1674 35.269 28.0914 35.0921L27.6551 34.0762Z" fill="#a3e635"/>
<path d="M27.3115 5.16581C27.4978 5.23968 27.7106 5.15572 27.7887 4.97982L28.2343 3.96759C28.272 3.88209 28.2724 3.78761 28.2354 3.70192C28.1986 3.61622 28.129 3.54921 28.0392 3.51356C27.9488 3.47748 27.8498 3.47682 27.7603 3.51227C27.6701 3.54728 27.5997 3.61363 27.562 3.69911L27.1164 4.71134C27.0388 4.8879 27.1263 5.09171 27.3115 5.16581Z" fill="#a3e635"/>
<path d="M14.6887 33.8343C14.5989 33.7982 14.4997 33.7978 14.4099 33.833C14.3198 33.8682 14.2494 33.9348 14.2117 34.0203L13.7661 35.0323C13.7284 35.1178 13.728 35.2123 13.765 35.2977C13.8018 35.3836 13.8714 35.4507 13.9612 35.4867C14.1465 35.5598 14.3601 35.4773 14.4384 35.3007L14.884 34.2883C14.9216 34.2028 14.9221 34.1087 14.8851 34.0228C14.8483 33.9374 14.7784 33.8703 14.6887 33.8343Z" fill="#a3e635"/>
<path d="M5.75396 13.0347L4.69112 12.6103C4.64536 12.5923 4.59755 12.5833 4.55064 12.5833C4.40811 12.5833 4.27258 12.6636 4.21395 12.7963C4.13659 12.9724 4.22411 13.1765 4.40924 13.2503L5.47208 13.6752C5.65722 13.7478 5.87124 13.6653 5.94927 13.4892C6.02685 13.3126 5.93912 13.1086 5.75396 13.0347Z" fill="#a3e635"/>
<path d="M37.5912 25.7493L36.5284 25.3249C36.4826 25.3069 36.4348 25.2979 36.3879 25.2979C36.2454 25.2979 36.1099 25.3782 36.0512 25.5109C35.9736 25.687 36.0613 25.8911 36.2465 25.9649L37.3094 26.3898C37.494 26.4628 37.7085 26.3803 37.7863 26.2038C37.824 26.1183 37.8244 26.0238 37.7874 25.9383C37.7507 25.8524 37.681 25.7854 37.5912 25.7493Z" fill="#a3e635"/>
<path d="M5.69827 25.1969C5.65295 25.1785 5.60514 25.1694 5.55756 25.1694C5.51065 25.1694 5.46397 25.178 5.41954 25.1956L4.35265 25.6115C4.26244 25.6467 4.19207 25.7128 4.15441 25.7983C4.11676 25.8838 4.1163 25.9783 4.15329 26.0637C4.22952 26.2412 4.44263 26.3266 4.62845 26.2536L5.69535 25.8378C5.88117 25.7656 5.97048 25.5625 5.89448 25.3855C5.85772 25.2996 5.78804 25.2326 5.69827 25.1969Z" fill="#a3e635"/>
<path d="M36.3019 13.8027C36.3921 13.8392 36.4913 13.8396 36.5806 13.804L37.6477 13.3886C37.8336 13.316 37.9229 13.1128 37.8466 12.9358C37.7889 12.8014 37.6525 12.7202 37.5091 12.7202C37.463 12.7202 37.4166 12.7284 37.3717 12.746L36.3048 13.1618C36.2148 13.197 36.1445 13.2632 36.1068 13.3487C36.0691 13.4341 36.0687 13.5286 36.1057 13.6141C36.1424 13.7 36.2121 13.767 36.3019 13.8027Z" fill="#a3e635"/>
<path d="M35.0499 17.774C35.6463 16.5875 35.2551 15.1253 34.1454 14.3527C34.3633 13.0601 33.5612 11.7587 32.2609 11.3151C32.1545 10.0036 31.048 8.92358 29.6814 8.78286C29.2522 7.71118 28.1412 7.00647 26.9586 7.00647C26.7915 7.00647 26.623 7.02053 26.4547 7.04963C25.9037 6.28376 24.9816 5.85493 24.0447 5.85491C23.6542 5.85491 23.2612 5.92937 22.8913 6.08501C22.3656 5.67771 21.7137 5.4739 21.0617 5.47388C20.3915 5.47385 19.7211 5.68926 19.187 6.12051C18.794 5.94131 18.372 5.85571 17.9532 5.85571C17.0444 5.85569 16.1499 6.2585 15.5946 6.98193C15.4455 6.95916 15.296 6.94805 15.1479 6.94805C13.9478 6.94797 12.8198 7.67437 12.4052 8.77664C11.0281 8.87795 9.89402 9.93179 9.74631 11.2333C8.46196 11.6999 7.67968 13.0122 7.92644 14.3064C6.78703 15.0499 6.35814 16.5025 6.91351 17.7C6.04619 18.7157 6.05764 20.2246 6.95081 21.228C6.35442 22.4145 6.74563 23.8767 7.85531 24.6493C7.63739 25.9419 8.4395 27.2433 9.73977 27.6869C9.84616 28.9984 10.9527 30.0785 12.3193 30.2191C12.5335 30.7541 12.9177 31.1976 13.3958 31.5077C13.8755 31.8188 14.4498 31.9955 15.042 31.9955C15.2092 31.9955 15.3777 31.9815 15.546 31.9524C16.097 32.7182 17.019 33.1471 17.9559 33.1471C18.3464 33.1471 18.7394 33.0726 19.1094 32.917C19.5383 33.2492 20.0512 33.4437 20.5795 33.5049C20.7007 33.519 20.8227 33.5261 20.9445 33.5261C21.1028 33.5261 21.261 33.5142 21.4176 33.4898C21.9217 33.4114 22.4073 33.2096 22.8137 32.8815C23.2067 33.0607 23.6286 33.1463 24.0475 33.1463C24.9562 33.1463 25.8508 32.7435 26.4061 32.0201C26.5551 32.0429 26.7042 32.0539 26.8522 32.0539C27.4873 32.0539 28.1021 31.8502 28.6019 31.4952C29.0465 31.1795 29.4003 30.7443 29.5955 30.2253C30.9726 30.124 32.1067 29.0702 32.2544 27.7687C33.5387 27.3021 34.321 25.9899 34.0743 24.6956C35.2137 23.9521 35.6425 22.4995 35.0871 21.302C35.9545 20.2863 35.943 18.7774 35.0499 17.774ZM27.6577 27.5158C25.9452 28.8078 23.8091 29.6122 21.48 29.7098C21.3209 29.7165 21.1611 29.7205 21.0004 29.7205C18.4852 29.7205 16.1724 28.896 14.3429 27.5158C11.8618 25.644 10.2699 22.7497 10.2699 19.501C10.2699 13.8569 15.0741 9.28152 21.0004 9.28152C26.9266 9.28152 31.7308 13.8569 31.7308 19.501C31.7308 22.7497 30.1389 25.644 27.6577 27.5158Z" fill="#a3e635"/>
<path d="M27.4001 17.8269L23.4695 17.2829C23.329 17.2635 23.2075 17.1794 23.1447 17.0582L21.3868 13.666C21.2286 13.3607 20.7714 13.3607 20.6132 13.666L18.8554 17.0582C18.7925 17.1794 18.6711 17.2635 18.5306 17.2829L14.5999 17.8269C14.2461 17.8758 14.1048 18.2899 14.3608 18.5276L17.2051 21.1681C17.3068 21.2624 17.3532 21.3984 17.3292 21.5317L16.6577 25.26C16.5973 25.5956 16.9671 25.8516 17.2836 25.6931L20.7993 23.9328C20.925 23.8699 21.0751 23.8699 21.2007 23.9328L24.7165 25.6931C25.0329 25.8516 25.4028 25.5956 25.3423 25.26L24.6709 21.5317C24.6469 21.3984 24.6933 21.2624 24.7949 21.1681L27.6392 18.5276C27.8952 18.2899 27.754 17.8758 27.4001 17.8269Z" fill="#a3e635"/>
</g>
<defs>
<clipPath id="clip0_83_341">
<rect width="42" height="40" fill="white"/>
</clipPath>
</defs>
</svg>
