<svg width="127" height="95" viewBox="0 0 127 95" fill="none" xmlns="http://www.w3.org/2000/svg">
<path d="M69.5569 95L97.6923 49.6502C91.44 49.129 86.0995 46.5226 81.6708 41.8313C77.5026 37.1399 75.4185 31.406 75.4185 24.6296C75.4185 17.0713 78.0236 11.0768 83.2338 6.6461C88.4441 2.21537 94.3056 0 100.818 0C108.113 0 114.235 2.21537 119.185 6.6461C124.395 11.0768 127 17.332 127 25.4115C127 32.7092 124.134 41.0494 118.403 50.4321C112.932 59.8148 104.075 73.3676 91.8308 91.0905L89.0954 95H69.5569ZM0 95L28.1354 49.6502C21.8831 49.129 16.5426 46.5226 12.1138 41.8313C7.94564 37.1399 5.86154 31.406 5.86154 24.6296C5.86154 17.0713 8.46667 11.0768 13.6769 6.6461C18.8872 2.21537 24.7487 0 31.2615 0C38.5559 0 44.6779 2.21537 49.6277 6.6461C54.8379 11.0768 57.4431 17.332 57.4431 25.4115C57.4431 32.7092 54.5774 41.0494 48.8461 50.4321C43.3754 59.8148 34.5179 73.3676 22.2738 91.0905L19.5385 95H0Z" fill="url(#paint0_linear_77_512)"/>
<defs>
<linearGradient id="paint0_linear_77_512" x1="63.5" y1="0" x2="63.5" y2="95" gradientUnits="userSpaceOnUse">
<stop stop-color="#23232D"/>
<stop offset="1" stop-color="#0D0D15"/>
</linearGradient>
</defs>
</svg>
