<svg xmlns="http://www.w3.org/2000/svg" xmlns:xlink="http://www.w3.org/1999/xlink" width="2000" zoomAndPan="magnify" viewBox="0 0 1500 1499.999933" height="2000" preserveAspectRatio="xMidYMid meet" version="1.0"><defs><clipPath id="cd3672c051"><path d="M 750 0 C 335.785156 0 0 335.785156 0 750 C 0 1164.214844 335.785156 1500 750 1500 C 1164.214844 1500 1500 1164.214844 1500 750 C 1500 335.785156 1164.214844 0 750 0 Z M 750 0 " clip-rule="nonzero"/></clipPath></defs><g clip-path="url(#cd3672c051)"><rect x="-150" width="1800" fill="#000000" y="-149.999993" height="1799.99992" fill-opacity="1"/></g><path stroke-linecap="round" transform="matrix(3.916231, -0.000000000000002428, 0.000000000000002428, 3.916231, 368.531514, 246.520096)" fill="none" stroke-linejoin="miter" d="M 18.499663 18.499586 L 176.225649 18.499586 " stroke="#ffffff" stroke-width="37" stroke-opacity="1" stroke-miterlimit="4"/><path stroke-linecap="round" transform="matrix(2.904835, -2.626557, 2.626557, 2.904835, 339.516743, 1174.165079)" fill="none" stroke-linejoin="miter" d="M 18.500157 18.499894 L 203.915627 18.500006 " stroke="#a3e635" stroke-width="37" stroke-opacity="1" stroke-miterlimit="4"/><path stroke-linecap="round" transform="matrix(3.916231, 0, 0, 3.916231, 368.531514, 1108.471517)" fill="none" stroke-linejoin="miter" d="M 18.499663 18.500021 L 176.225649 18.500021 " stroke="#a3e635" stroke-width="37" stroke-opacity="1" stroke-miterlimit="4"/><path stroke-linecap="round" transform="matrix(2.904835, -2.626557, 2.626557, 2.904835, 417.211413, 802.518487)" fill="none" stroke-linejoin="miter" d="M 18.499925 18.500394 L 203.915396 18.500506 " stroke="#ffffff" stroke-width="37" stroke-opacity="1" stroke-miterlimit="4"/></svg>