<svg width="384" height="464" viewBox="0 0 384 464" fill="none" xmlns="http://www.w3.org/2000/svg">
<mask id="mask0_555_3850" style="mask-type:alpha" maskUnits="userSpaceOnUse" x="0" y="0" width="384" height="464">
<rect width="384" height="464" rx="10" fill="#a3e635"/>
</mask>
<g mask="url(#mask0_555_3850)">
<mask id="mask1_555_3850" style="mask-type:alpha" maskUnits="userSpaceOnUse" x="-41" y="45" width="503" height="348">
<path d="M323.837 232.125H461.337V233.375H322.587V45.875H323.837V232.125Z" fill="#a3e635"/>
<path d="M402.587 314H371.075L361.337 296.959V251.5H308.212V352.75H256.337V354H309.462V252.75H360.087V297.291L370.349 315.25H402.587V314Z" fill="#a3e635"/>
<path d="M224.462 81.8739V161.5H223.212V82.3761L209.195 67.75H156.962V234.938L176.962 249.938V341.5H237.587V110.25H238.837V342.75H176.962V372.125H122.587V282.75H91.337V351.281L103.837 366.906V392.75H42.8866L25.087 367.322V282.75H-11.788V281.5H26.337V366.928L43.5374 391.5H102.587V367.344L90.087 351.719V281.5H122.587V134.625H123.837V281.5H164.462V282.75H123.837V370.875H175.712V342.75H144.462V341.5H175.712V250.562L155.712 235.562V66.5H209.729L224.462 81.8739Z" fill="#a3e635"/>
<path d="M153.837 132.125V133.375H56.962V220.875H-19.913V153.015L-40.3481 133.199L-39.4779 132.301L-18.663 152.485V219.625H55.712V132.125H153.837Z" fill="#a3e635"/>
<path d="M429.462 174.321V104H430.712V174.929L412.803 189H325.712V187.75H412.371L429.462 174.321Z" fill="#a3e635"/>
</mask>
<g mask="url(#mask1_555_3850)">
<g filter="url(#filter0_f_555_3850)">
<path d="M280 207.5C280 264.109 234.109 310 177.5 310C120.891 310 75 264.109 75 207.5C75 150.891 120.891 105 177.5 105C234.109 105 280 150.891 280 207.5Z" fill="#ffffff"/>
</g>
</g>
<mask id="mask2_555_3850" style="mask-type:alpha" maskUnits="userSpaceOnUse" x="-17" y="44" width="451" height="350">
<path d="M323.212 50.25C324.938 50.25 326.337 48.8509 326.337 47.125C326.337 45.3991 324.938 44 323.212 44C321.486 44 320.087 45.3991 320.087 47.125C320.087 48.8509 321.486 50.25 323.212 50.25Z" fill="#a3e635"/>
<path d="M405.712 317.75C407.438 317.75 408.837 316.351 408.837 314.625C408.837 312.899 407.438 311.5 405.712 311.5C403.986 311.5 402.587 312.899 402.587 314.625C402.587 316.351 403.986 317.75 405.712 317.75Z" fill="#a3e635"/>
<path d="M254.462 356.5C256.188 356.5 257.587 355.101 257.587 353.375C257.587 351.649 256.188 350.25 254.462 350.25C252.736 350.25 251.337 351.649 251.337 353.375C251.337 355.101 252.736 356.5 254.462 356.5Z" fill="#a3e635"/>
<path d="M146.337 342.125C146.337 343.851 144.938 345.25 143.212 345.25C141.486 345.25 140.087 343.851 140.087 342.125C140.087 340.399 141.486 339 143.212 339C144.938 339 146.337 340.399 146.337 342.125Z" fill="#a3e635"/>
<path d="M-9.91296 282.125C-9.91296 283.851 -11.3121 285.25 -13.038 285.25C-14.7639 285.25 -16.163 283.851 -16.163 282.125C-16.163 280.399 -14.7639 279 -13.038 279C-11.3121 279 -9.91296 280.399 -9.91296 282.125Z" fill="#a3e635"/>
<path d="M123.212 136.5C124.938 136.5 126.337 135.101 126.337 133.375C126.337 131.649 124.938 130.25 123.212 130.25C121.486 130.25 120.087 131.649 120.087 133.375C120.087 135.101 121.486 136.5 123.212 136.5Z" fill="#a3e635"/>
<path d="M241.337 109.625C241.337 111.351 239.938 112.75 238.212 112.75C236.486 112.75 235.087 111.351 235.087 109.625C235.087 107.899 236.486 106.5 238.212 106.5C239.938 106.5 241.337 107.899 241.337 109.625Z" fill="#a3e635"/>
<path d="M430.712 105.25C432.438 105.25 433.837 103.851 433.837 102.125C433.837 100.399 432.438 99 430.712 99C428.986 99 427.587 100.399 427.587 102.125C427.587 103.851 428.986 105.25 430.712 105.25Z" fill="#a3e635"/>
<path d="M326.337 188.375C326.337 190.101 324.938 191.5 323.212 191.5C321.486 191.5 320.087 190.101 320.087 188.375C320.087 186.649 321.486 185.25 323.212 185.25C324.938 185.25 326.337 186.649 326.337 188.375Z" fill="#a3e635"/>
<path d="M156.962 71.5C158.688 71.5 160.087 70.1009 160.087 68.375C160.087 66.6491 158.688 65.25 156.962 65.25C155.236 65.25 153.837 66.6491 153.837 68.375C153.837 70.1009 155.236 71.5 156.962 71.5Z" fill="#a3e635"/>
<path d="M58.837 219.625C58.837 221.351 57.4379 222.75 55.712 222.75C53.9861 222.75 52.587 221.351 52.587 219.625C52.587 217.899 53.9861 216.5 55.712 216.5C57.4379 216.5 58.837 217.899 58.837 219.625Z" fill="#a3e635"/>
<path d="M41.962 394C43.6879 394 45.087 392.601 45.087 390.875C45.087 389.149 43.6879 387.75 41.962 387.75C40.2361 387.75 38.837 389.149 38.837 390.875C38.837 392.601 40.2361 394 41.962 394Z" fill="#a3e635"/>
</mask>
<g mask="url(#mask2_555_3850)">
<g filter="url(#filter1_f_555_3850)">
<path d="M326 186.5C326 262.991 263.992 325 187.5 325C111.009 325 49.0001 262.991 49.0001 186.5C49.0001 110.009 111.009 48 187.5 48C263.992 48 326 110.009 326 186.5Z" fill="#a3e635"/>
</g>
</g>
<g filter="url(#filter2_f_555_3850)">
<ellipse cx="191.997" cy="226.988" rx="44.1221" ry="44.1221" fill="#a3e635"/>
</g>
<path d="M195.875 308.131C193.38 309.196 190.616 309.196 188.121 308.131V308.131C168.671 299.839 151.946 285.233 140.144 266.232C128.343 247.232 122.017 224.728 122 201.678V166.908C122 163.749 123.135 160.721 125.154 158.488C127.174 156.255 129.913 155 132.769 155H251.227C254.083 155 256.823 156.255 258.842 158.488C260.862 160.721 261.996 163.749 261.996 166.908V201.678C261.979 224.728 255.654 247.232 243.852 266.232C232.051 285.233 215.325 299.839 195.875 308.131V308.131Z" fill="#a3e635" stroke="#a3e635" stroke-linecap="round" stroke-linejoin="round"/>
<path d="M192.059 219.671C200.988 219.671 208.226 212.433 208.226 203.504C208.226 194.574 200.988 187.336 192.059 187.336C183.13 187.336 175.891 194.574 175.891 203.504C175.891 212.433 183.13 219.671 192.059 219.671ZM192.059 219.671L191.666 246.562" stroke="#000000" stroke-width="4" stroke-linecap="round" stroke-linejoin="round"/>
</g>
<defs>
<filter id="filter0_f_555_3850" x="-25" y="5" width="405" height="405" filterUnits="userSpaceOnUse" color-interpolation-filters="sRGB">
<feFlood flood-opacity="0" result="BackgroundImageFix"/>
<feBlend mode="normal" in="SourceGraphic" in2="BackgroundImageFix" result="shape"/>
<feGaussianBlur stdDeviation="50" result="effect1_foregroundBlur_555_3850"/>
</filter>
<filter id="filter1_f_555_3850" x="-50.9999" y="-52" width="477" height="477" filterUnits="userSpaceOnUse" color-interpolation-filters="sRGB">
<feFlood flood-opacity="0" result="BackgroundImageFix"/>
<feBlend mode="normal" in="SourceGraphic" in2="BackgroundImageFix" result="shape"/>
<feGaussianBlur stdDeviation="50" result="effect1_foregroundBlur_555_3850"/>
</filter>
<filter id="filter2_f_555_3850" x="67.8752" y="102.866" width="248.244" height="248.244" filterUnits="userSpaceOnUse" color-interpolation-filters="sRGB">
<feFlood flood-opacity="0" result="BackgroundImageFix"/>
<feBlend mode="normal" in="SourceGraphic" in2="BackgroundImageFix" result="shape"/>
<feGaussianBlur stdDeviation="40" result="effect1_foregroundBlur_555_3850"/>
</filter>
</defs>
</svg>
