<svg width="318" height="360" viewBox="0 0 318 360" fill="none" xmlns="http://www.w3.org/2000/svg">
<g filter="url(#filter0_iii_120_3648)">
<rect width="325.757" height="359.34" rx="6" fill="#171717"/>
<path d="M71.05 140.6C68.6167 140.6 66.45 140.067 64.55 139C62.65 137.933 61.15 136.467 60.05 134.6C58.9833 132.733 58.45 130.617 58.45 128.25C58.45 127.017 58.5833 125.783 58.85 124.55C59.1167 123.317 59.5833 122.033 60.25 120.7C60.95 119.367 61.8833 117.933 63.05 116.4L73.45 102.75H80.5L67.75 119.25L66.75 118.6C67.2167 118.067 67.7167 117.65 68.25 117.35C68.8167 117.05 69.4 116.833 70 116.7C70.6333 116.567 71.3 116.5 72 116.5C74.2333 116.5 76.2333 117.017 78 118.05C79.7667 119.083 81.15 120.483 82.15 122.25C83.1833 124.017 83.7 126.05 83.7 128.35C83.7 130.683 83.15 132.783 82.05 134.65C80.95 136.483 79.45 137.933 77.55 139C75.6833 140.067 73.5167 140.6 71.05 140.6ZM71.05 135.35C72.35 135.35 73.5 135.05 74.5 134.45C75.5 133.85 76.3 133.033 76.9 132C77.5 130.933 77.8 129.733 77.8 128.4C77.8 127.033 77.5 125.833 76.9 124.8C76.3333 123.767 75.5333 122.967 74.5 122.4C73.5 121.8 72.35 121.5 71.05 121.5C69.7833 121.5 68.6333 121.8 67.6 122.4C66.6 122.967 65.8 123.767 65.2 124.8C64.6 125.833 64.3 127.033 64.3 128.4C64.3 129.733 64.6 130.933 65.2 132C65.8 133.033 66.6 133.85 67.6 134.45C68.6333 135.05 69.7833 135.35 71.05 135.35ZM99.4793 140.6C97.5126 140.6 95.6626 140.25 93.9293 139.55C92.196 138.817 90.696 137.8 89.4293 136.5C88.1626 135.2 87.2626 133.633 86.7293 131.8L91.6793 129.9C92.3126 131.667 93.346 133.017 94.7793 133.95C96.2126 134.883 97.7793 135.35 99.4793 135.35C100.879 135.35 102.113 135.033 103.179 134.4C104.246 133.767 105.079 132.9 105.679 131.8C106.313 130.7 106.629 129.45 106.629 128.05C106.629 126.617 106.313 125.367 105.679 124.3C105.079 123.2 104.246 122.35 103.179 121.75C102.113 121.117 100.879 120.8 99.4793 120.8C98.0793 120.8 96.796 121.117 95.6293 121.75C94.4626 122.383 93.6126 123.233 93.0793 124.3L88.3293 123.25L91.2293 102.75H111.079V107.75H93.5293L95.7793 105.3L93.6293 121L91.7793 119.75C92.7793 118.35 93.996 117.333 95.4293 116.7C96.8626 116.067 98.496 115.75 100.329 115.75C102.763 115.75 104.879 116.3 106.679 117.4C108.513 118.467 109.929 119.933 110.929 121.8C111.963 123.633 112.479 125.717 112.479 128.05C112.479 130.417 111.913 132.55 110.779 134.45C109.646 136.35 108.096 137.85 106.129 138.95C104.196 140.05 101.979 140.6 99.4793 140.6Z" fill="url(#paint0_linear_120_3648)"/>
<path d="M148.54 130V115.1H153.96C154.96 115.1 155.84 115.287 156.6 115.66C157.36 116.02 157.953 116.553 158.38 117.26C158.82 117.953 159.04 118.787 159.04 119.76C159.04 120.787 158.78 121.667 158.26 122.4C157.753 123.133 157.067 123.667 156.2 124L159.64 130H156.96L153.3 123.5L154.84 124.4H150.9V130H148.54ZM150.9 122.3H154C154.547 122.3 155.02 122.193 155.42 121.98C155.82 121.767 156.127 121.473 156.34 121.1C156.567 120.713 156.68 120.26 156.68 119.74C156.68 119.22 156.567 118.773 156.34 118.4C156.127 118.013 155.82 117.72 155.42 117.52C155.02 117.307 154.547 117.2 154 117.2H150.9V122.3ZM165.266 130.24C164.453 130.24 163.739 130.06 163.126 129.7C162.513 129.327 162.033 128.813 161.686 128.16C161.353 127.493 161.186 126.727 161.186 125.86V119.18H163.446V125.66C163.446 126.153 163.546 126.587 163.746 126.96C163.946 127.333 164.226 127.627 164.586 127.84C164.946 128.04 165.359 128.14 165.826 128.14C166.306 128.14 166.726 128.033 167.086 127.82C167.446 127.607 167.726 127.307 167.926 126.92C168.139 126.533 168.246 126.08 168.246 125.56V119.18H170.486V130H168.346V127.88L168.586 128.16C168.333 128.827 167.913 129.34 167.326 129.7C166.739 130.06 166.053 130.24 165.266 130.24ZM173.125 130V119.18H175.285V121.3L175.025 121.02C175.291 120.34 175.718 119.827 176.305 119.48C176.891 119.12 177.571 118.94 178.345 118.94C179.145 118.94 179.851 119.113 180.465 119.46C181.078 119.807 181.558 120.287 181.905 120.9C182.251 121.513 182.425 122.22 182.425 123.02V130H180.185V123.62C180.185 123.073 180.085 122.613 179.885 122.24C179.685 121.853 179.398 121.56 179.025 121.36C178.665 121.147 178.251 121.04 177.785 121.04C177.318 121.04 176.898 121.147 176.525 121.36C176.165 121.56 175.885 121.853 175.685 122.24C175.485 122.627 175.385 123.087 175.385 123.62V130H173.125ZM184.843 130V119.18H187.003V121.3L186.743 121.02C187.01 120.34 187.437 119.827 188.023 119.48C188.61 119.12 189.29 118.94 190.063 118.94C190.863 118.94 191.57 119.113 192.183 119.46C192.797 119.807 193.277 120.287 193.623 120.9C193.97 121.513 194.143 122.22 194.143 123.02V130H191.903V123.62C191.903 123.073 191.803 122.613 191.603 122.24C191.403 121.853 191.117 121.56 190.743 121.36C190.383 121.147 189.97 121.04 189.503 121.04C189.037 121.04 188.617 121.147 188.243 121.36C187.883 121.56 187.603 121.853 187.403 122.24C187.203 122.627 187.103 123.087 187.103 123.62V130H184.843ZM196.562 130V119.18H198.822V130H196.562ZM196.562 117.7V115.1H198.822V117.7H196.562ZM201.465 130V119.18H203.625V121.3L203.365 121.02C203.631 120.34 204.058 119.827 204.645 119.48C205.231 119.12 205.911 118.94 206.685 118.94C207.485 118.94 208.191 119.113 208.805 119.46C209.418 119.807 209.898 120.287 210.245 120.9C210.591 121.513 210.765 122.22 210.765 123.02V130H208.525V123.62C208.525 123.073 208.425 122.613 208.225 122.24C208.025 121.853 207.738 121.56 207.365 121.36C207.005 121.147 206.591 121.04 206.125 121.04C205.658 121.04 205.238 121.147 204.865 121.36C204.505 121.56 204.225 121.853 204.025 122.24C203.825 122.627 203.725 123.087 203.725 123.62V130H201.465ZM218.403 134.4C217.617 134.4 216.89 134.273 216.223 134.02C215.557 133.767 214.983 133.413 214.503 132.96C214.023 132.52 213.663 132 213.423 131.4L215.503 130.54C215.69 131.047 216.03 131.467 216.523 131.8C217.03 132.133 217.65 132.3 218.383 132.3C218.957 132.3 219.47 132.187 219.923 131.96C220.377 131.747 220.737 131.427 221.003 131C221.27 130.587 221.403 130.087 221.403 129.5V127.06L221.803 127.52C221.43 128.213 220.91 128.74 220.243 129.1C219.59 129.46 218.85 129.64 218.023 129.64C217.023 129.64 216.123 129.407 215.323 128.94C214.523 128.473 213.89 127.833 213.423 127.02C212.97 126.207 212.743 125.293 212.743 124.28C212.743 123.253 212.97 122.34 213.423 121.54C213.89 120.74 214.517 120.107 215.303 119.64C216.09 119.173 216.99 118.94 218.003 118.94C218.83 118.94 219.563 119.12 220.203 119.48C220.857 119.827 221.39 120.333 221.803 121L221.503 121.56V119.18H223.643V129.5C223.643 130.433 223.417 131.267 222.963 132C222.523 132.747 221.91 133.333 221.123 133.76C220.337 134.187 219.43 134.4 218.403 134.4ZM218.283 127.54C218.883 127.54 219.417 127.4 219.883 127.12C220.35 126.827 220.717 126.44 220.983 125.96C221.263 125.467 221.403 124.913 221.403 124.3C221.403 123.687 221.263 123.133 220.983 122.64C220.703 122.147 220.33 121.76 219.863 121.48C219.397 121.187 218.87 121.04 218.283 121.04C217.67 121.04 217.123 121.187 216.643 121.48C216.163 121.76 215.783 122.147 215.503 122.64C215.237 123.12 215.103 123.673 215.103 124.3C215.103 124.9 215.237 125.447 215.503 125.94C215.783 126.433 216.163 126.827 216.643 127.12C217.123 127.4 217.67 127.54 218.283 127.54ZM232.645 130V117.2H228.685V115.1H238.885V117.2H234.985V130H232.645ZM242.478 130.24C241.745 130.24 241.098 130.113 240.538 129.86C239.991 129.593 239.565 129.233 239.258 128.78C238.951 128.313 238.798 127.767 238.798 127.14C238.798 126.553 238.925 126.027 239.178 125.56C239.445 125.093 239.851 124.7 240.398 124.38C240.945 124.06 241.631 123.833 242.458 123.7L246.218 123.08V124.86L242.898 125.44C242.298 125.547 241.858 125.74 241.578 126.02C241.298 126.287 241.158 126.633 241.158 127.06C241.158 127.473 241.311 127.813 241.618 128.08C241.938 128.333 242.345 128.46 242.838 128.46C243.451 128.46 243.985 128.327 244.438 128.06C244.905 127.793 245.265 127.44 245.518 127C245.771 126.547 245.898 126.047 245.898 125.5V122.72C245.898 122.187 245.698 121.753 245.298 121.42C244.911 121.073 244.391 120.9 243.738 120.9C243.138 120.9 242.611 121.06 242.158 121.38C241.718 121.687 241.391 122.087 241.178 122.58L239.298 121.64C239.498 121.107 239.825 120.64 240.278 120.24C240.731 119.827 241.258 119.507 241.858 119.28C242.471 119.053 243.118 118.94 243.798 118.94C244.651 118.94 245.405 119.1 246.058 119.42C246.725 119.74 247.238 120.187 247.598 120.76C247.971 121.32 248.158 121.973 248.158 122.72V130H245.998V128.04L246.458 128.1C246.205 128.54 245.878 128.92 245.478 129.24C245.091 129.56 244.645 129.807 244.138 129.98C243.645 130.153 243.091 130.24 242.478 130.24ZM254.8 130.24C253.694 130.24 252.72 129.967 251.88 129.42C251.054 128.873 250.474 128.14 250.14 127.22L251.88 126.4C252.174 127.013 252.574 127.5 253.08 127.86C253.6 128.22 254.174 128.4 254.8 128.4C255.334 128.4 255.767 128.28 256.1 128.04C256.434 127.8 256.6 127.473 256.6 127.06C256.6 126.793 256.527 126.58 256.38 126.42C256.234 126.247 256.047 126.107 255.82 126C255.607 125.893 255.387 125.813 255.16 125.76L253.46 125.28C252.527 125.013 251.827 124.613 251.36 124.08C250.907 123.533 250.68 122.9 250.68 122.18C250.68 121.527 250.847 120.96 251.18 120.48C251.514 119.987 251.974 119.607 252.56 119.34C253.147 119.073 253.807 118.94 254.54 118.94C255.527 118.94 256.407 119.187 257.18 119.68C257.954 120.16 258.5 120.833 258.82 121.7L257.08 122.52C256.867 122 256.527 121.587 256.06 121.28C255.607 120.973 255.094 120.82 254.52 120.82C254.027 120.82 253.634 120.94 253.34 121.18C253.047 121.407 252.9 121.707 252.9 122.08C252.9 122.333 252.967 122.547 253.1 122.72C253.234 122.88 253.407 123.013 253.62 123.12C253.834 123.213 254.054 123.293 254.28 123.36L256.04 123.88C256.934 124.133 257.62 124.533 258.1 125.08C258.58 125.613 258.82 126.253 258.82 127C258.82 127.64 258.647 128.207 258.3 128.7C257.967 129.18 257.5 129.56 256.9 129.84C256.3 130.107 255.6 130.24 254.8 130.24ZM261.035 130V114.86H263.295V125L262.415 124.78L267.835 119.18H270.655L266.575 123.52L270.835 130H268.235L264.435 124.26L265.775 124.08L262.575 127.48L263.295 125.98V130H261.035Z" fill="#a3a3a3"/>
<path opacity="0.1" fill-rule="evenodd" clip-rule="evenodd" d="M86.0914 308.183C117.622 308.183 143.183 282.622 143.183 251.091C143.183 219.561 117.622 194 86.0914 194C54.5607 194 29 219.561 29 251.091C29 282.622 54.5607 308.183 86.0914 308.183Z" stroke="#a3e635" stroke-width="5.03748"/>
<path d="M106.652 304.368C128.024 296.115 143.183 275.374 143.183 251.091C143.183 219.561 117.622 194 86.0915 194" stroke="#a3e635" stroke-width="5.03748" stroke-linecap="round" stroke-linejoin="round"/>
<path d="M65.0256 262.941V257.743H53.9633V255.295L64.9651 240.424H67.8063V255.295H70.7381V257.743H67.8063V262.941H65.0256ZM56.1999 256.352L55.7768 255.295H65.0256V242.902L65.9021 243.144L56.1999 256.352ZM80.4008 263.304C79.2321 263.304 78.134 263.103 77.1063 262.7C76.0787 262.276 75.182 261.682 74.4163 260.916C73.6708 260.13 73.1267 259.214 72.7842 258.166L75.2021 257.138C75.6253 258.246 76.3104 259.113 77.2574 259.738C78.2246 260.342 79.2724 260.644 80.4008 260.644C81.3277 260.644 82.1438 260.443 82.849 260.04C83.5744 259.617 84.1386 259.042 84.5416 258.317C84.9446 257.571 85.1461 256.745 85.1461 255.839C85.1461 254.892 84.9346 254.055 84.5114 253.33C84.1084 252.604 83.5543 252.04 82.849 251.637C82.1438 251.214 81.3378 251.003 80.431 251.003C79.5042 251.003 78.6579 251.214 77.8922 251.637C77.1265 252.06 76.5723 252.594 76.2298 253.239L73.842 252.725L75.5648 240.424H87.2316V242.993H76.6832L77.8317 241.844L76.5018 251.396L75.4742 250.791C76.1391 249.945 76.9149 249.34 77.8015 248.978C78.7082 248.595 79.6855 248.403 80.7333 248.403C82.2042 248.403 83.4938 248.736 84.6021 249.401C85.7103 250.066 86.5768 250.952 87.2014 252.06C87.8261 253.169 88.1384 254.428 88.1384 255.839C88.1384 257.249 87.7958 258.518 87.1107 259.647C86.4458 260.775 85.529 261.672 84.3603 262.337C83.2117 262.982 81.8919 263.304 80.4008 263.304ZM93.6759 262.941L112.053 240.424H115.408L97.0309 262.941H93.6759ZM97.0611 251.849C95.9529 251.849 94.9554 251.587 94.0688 251.063C93.1822 250.519 92.4669 249.804 91.9229 248.917C91.399 248.03 91.137 247.043 91.137 245.955C91.137 244.867 91.399 243.88 91.9229 242.993C92.4669 242.086 93.1822 241.371 94.0688 240.847C94.9554 240.323 95.9529 240.061 97.0611 240.061C98.1492 240.061 99.1365 240.323 100.023 240.847C100.91 241.371 101.615 242.086 102.139 242.993C102.663 243.88 102.925 244.867 102.925 245.955C102.925 247.043 102.663 248.03 102.139 248.917C101.615 249.804 100.91 250.519 100.023 251.063C99.1365 251.587 98.1492 251.849 97.0611 251.849ZM97.0309 249.37C97.716 249.37 98.3003 249.209 98.7839 248.887C99.2675 248.564 99.6504 248.141 99.9325 247.617C100.215 247.093 100.356 246.539 100.356 245.955C100.356 245.351 100.215 244.796 99.9325 244.293C99.6504 243.769 99.2675 243.346 98.7839 243.023C98.3003 242.681 97.716 242.509 97.0309 242.509C96.3861 242.509 95.8118 242.681 95.3081 243.023C94.8043 243.346 94.4114 243.769 94.1293 244.293C93.8472 244.817 93.7061 245.371 93.7061 245.955C93.7061 246.519 93.8472 247.073 94.1293 247.617C94.4114 248.141 94.8043 248.564 95.3081 248.887C95.8118 249.209 96.3861 249.37 97.0309 249.37ZM111.841 263.304C110.733 263.304 109.735 263.042 108.849 262.518C107.962 261.974 107.247 261.259 106.703 260.372C106.179 259.486 105.917 258.498 105.917 257.41C105.917 256.322 106.179 255.335 106.703 254.448C107.247 253.541 107.962 252.826 108.849 252.302C109.735 251.778 110.733 251.516 111.841 251.516C112.929 251.516 113.917 251.778 114.803 252.302C115.69 252.826 116.395 253.541 116.919 254.448C117.443 255.335 117.705 256.322 117.705 257.41C117.705 258.498 117.443 259.486 116.919 260.372C116.395 261.259 115.69 261.974 114.803 262.518C113.917 263.042 112.929 263.304 111.841 263.304ZM111.841 260.826C112.506 260.826 113.08 260.664 113.564 260.342C114.068 260.02 114.45 259.597 114.712 259.073C114.995 258.549 115.136 257.995 115.136 257.41C115.136 256.806 114.995 256.252 114.712 255.748C114.45 255.224 114.068 254.801 113.564 254.478C113.08 254.136 112.506 253.965 111.841 253.965C111.196 253.965 110.612 254.136 110.088 254.478C109.584 254.801 109.191 255.224 108.909 255.748C108.627 256.272 108.486 256.826 108.486 257.41C108.486 257.974 108.627 258.529 108.909 259.073C109.191 259.597 109.584 260.02 110.088 260.342C110.612 260.664 111.196 260.826 111.841 260.826Z" fill="url(#paint1_linear_120_3648)"/>
<path d="M186.911 243V221.339H182.108V217.981H190.84V243H186.911ZM205.536 243.403C203.543 243.403 201.797 242.866 200.297 241.791C198.797 240.694 197.621 239.183 196.771 237.257C195.942 235.309 195.528 233.048 195.528 230.473C195.528 227.876 195.942 225.615 196.771 223.69C197.621 221.764 198.786 220.264 200.263 219.19C201.763 218.115 203.51 217.578 205.502 217.578C207.495 217.578 209.23 218.115 210.708 219.19C212.208 220.264 213.372 221.775 214.2 223.723C215.051 225.649 215.477 227.899 215.477 230.473C215.477 233.048 215.062 235.309 214.234 237.257C213.406 239.183 212.241 240.694 210.741 241.791C209.264 242.866 207.529 243.403 205.536 243.403ZM205.536 239.776C206.767 239.776 207.831 239.395 208.726 238.634C209.622 237.873 210.316 236.798 210.808 235.41C211.301 234.022 211.547 232.377 211.547 230.473C211.547 228.57 211.301 226.925 210.808 225.537C210.316 224.149 209.622 223.074 208.726 222.313C207.831 221.552 206.756 221.171 205.502 221.171C204.271 221.171 203.207 221.552 202.312 222.313C201.416 223.074 200.722 224.149 200.23 225.537C199.737 226.925 199.491 228.57 199.491 230.473C199.491 232.354 199.737 234 200.23 235.41C200.722 236.798 201.416 237.873 202.312 238.634C203.23 239.395 204.305 239.776 205.536 239.776ZM228.904 243.403C226.911 243.403 225.165 242.866 223.665 241.791C222.165 240.694 220.989 239.183 220.139 237.257C219.31 235.309 218.896 233.048 218.896 230.473C218.896 227.876 219.31 225.615 220.139 223.69C220.989 221.764 222.154 220.264 223.631 219.19C225.131 218.115 226.878 217.578 228.87 217.578C230.863 217.578 232.598 218.115 234.076 219.19C235.576 220.264 236.74 221.775 237.568 223.723C238.419 225.649 238.844 227.899 238.844 230.473C238.844 233.048 238.43 235.309 237.602 237.257C236.773 239.183 235.609 240.694 234.109 241.791C232.632 242.866 230.896 243.403 228.904 243.403ZM228.904 239.776C230.135 239.776 231.199 239.395 232.094 238.634C232.99 237.873 233.684 236.798 234.176 235.41C234.669 234.022 234.915 232.377 234.915 230.473C234.915 228.57 234.669 226.925 234.176 225.537C233.684 224.149 232.99 223.074 232.094 222.313C231.199 221.552 230.124 221.171 228.87 221.171C227.639 221.171 226.575 221.552 225.68 222.313C224.784 223.074 224.09 224.149 223.598 225.537C223.105 226.925 222.859 228.57 222.859 230.473C222.859 232.354 223.105 234 223.598 235.41C224.09 236.798 224.784 237.873 225.68 238.634C226.598 239.395 227.672 239.776 228.904 239.776Z" fill="url(#paint2_linear_120_3648)"/>
<path d="M184.834 272.017V260.227H181.198V258.607H190.198V260.227H186.616V272.017H184.834ZM193.472 272.233C192.836 272.233 192.272 272.119 191.78 271.891C191.3 271.651 190.922 271.327 190.646 270.919C190.37 270.499 190.232 270.019 190.232 269.479C190.232 268.963 190.34 268.501 190.556 268.093C190.784 267.673 191.132 267.319 191.6 267.031C192.08 266.743 192.68 266.539 193.4 266.419L197 265.825V267.229L193.778 267.769C193.154 267.877 192.698 268.075 192.41 268.363C192.134 268.651 191.996 269.005 191.996 269.425C191.996 269.821 192.152 270.151 192.464 270.415C192.788 270.679 193.19 270.811 193.67 270.811C194.282 270.811 194.81 270.685 195.254 270.433C195.71 270.169 196.064 269.815 196.316 269.371C196.58 268.927 196.712 268.435 196.712 267.895V265.429C196.712 264.901 196.514 264.475 196.118 264.151C195.734 263.815 195.224 263.647 194.588 263.647C194.036 263.647 193.544 263.791 193.112 264.079C192.692 264.355 192.38 264.727 192.176 265.195L190.718 264.439C190.898 263.995 191.186 263.599 191.582 263.251C191.978 262.891 192.44 262.609 192.968 262.405C193.496 262.201 194.048 262.099 194.624 262.099C195.368 262.099 196.022 262.243 196.586 262.531C197.15 262.807 197.588 263.197 197.9 263.701C198.224 264.193 198.386 264.769 198.386 265.429V272.017H196.748V270.181L197.054 270.289C196.85 270.673 196.574 271.009 196.226 271.297C195.878 271.585 195.47 271.813 195.002 271.981C194.534 272.149 194.024 272.233 193.472 272.233ZM204.456 272.233C203.484 272.233 202.638 271.993 201.918 271.513C201.198 271.033 200.688 270.385 200.388 269.569L201.72 268.921C201.996 269.497 202.374 269.953 202.854 270.289C203.334 270.625 203.868 270.793 204.456 270.793C204.984 270.793 205.422 270.667 205.77 270.415C206.118 270.163 206.292 269.833 206.292 269.425C206.292 269.137 206.208 268.909 206.04 268.741C205.884 268.561 205.692 268.423 205.464 268.327C205.236 268.219 205.026 268.141 204.834 268.093L203.376 267.679C202.5 267.427 201.858 267.067 201.45 266.599C201.054 266.131 200.856 265.585 200.856 264.961C200.856 264.385 201 263.887 201.288 263.467C201.588 263.035 201.99 262.699 202.494 262.459C203.01 262.219 203.586 262.099 204.222 262.099C205.074 262.099 205.836 262.315 206.508 262.747C207.192 263.179 207.678 263.785 207.966 264.565L206.598 265.195C206.382 264.691 206.058 264.295 205.626 264.007C205.194 263.707 204.708 263.557 204.168 263.557C203.676 263.557 203.286 263.683 202.998 263.935C202.71 264.175 202.566 264.481 202.566 264.853C202.566 265.129 202.638 265.357 202.782 265.537C202.926 265.705 203.1 265.837 203.304 265.933C203.508 266.017 203.706 266.089 203.898 266.149L205.482 266.617C206.274 266.845 206.886 267.199 207.318 267.679C207.762 268.159 207.984 268.735 207.984 269.407C207.984 269.947 207.834 270.433 207.534 270.865C207.234 271.297 206.82 271.633 206.292 271.873C205.764 272.113 205.152 272.233 204.456 272.233ZM210.175 272.017V258.391H211.849V267.733L211.165 267.571L216.313 262.315H218.455L214.729 266.221L218.707 272.017H216.727L213.091 266.761L214.135 266.707L211.309 269.659L211.849 268.435V272.017H210.175Z" fill="#737373"/>
<rect x="25" y="32" width="120" height="20" rx="6" fill="#262626"/>
<rect x="198" y="318" width="109" height="11" rx="5.5" fill="#262626"/>
</g>
<defs>
<filter id="filter0_iii_120_3648" x="0" y="-0.75" width="325.757" height="361.09" filterUnits="userSpaceOnUse" color-interpolation-filters="sRGB">
<feFlood flood-opacity="0" result="BackgroundImageFix"/>
<feBlend mode="normal" in="SourceGraphic" in2="BackgroundImageFix" result="shape"/>
<feColorMatrix in="SourceAlpha" type="matrix" values="0 0 0 0 0 0 0 0 0 0 0 0 0 0 0 0 0 0 127 0" result="hardAlpha"/>
<feOffset dy="1"/>
<feGaussianBlur stdDeviation="0.625"/>
<feComposite in2="hardAlpha" operator="arithmetic" k2="-1" k3="1"/>
<feColorMatrix type="matrix" values="0 0 0 0 0 0 0 0 0 0 0 0 0 0 0 0 0 0 0.3 0"/>
<feBlend mode="normal" in2="shape" result="effect1_innerShadow_120_3648"/>
<feColorMatrix in="SourceAlpha" type="matrix" values="0 0 0 0 0 0 0 0 0 0 0 0 0 0 0 0 0 0 127 0" result="hardAlpha"/>
<feOffset dy="0.75"/>
<feGaussianBlur stdDeviation="0.5"/>
<feComposite in2="hardAlpha" operator="arithmetic" k2="-1" k3="1"/>
<feColorMatrix type="matrix" values="0 0 0 0 1 0 0 0 0 1 0 0 0 0 1 0 0 0 0.12 0"/>
<feBlend mode="normal" in2="effect1_innerShadow_120_3648" result="effect2_innerShadow_120_3648"/>
<feColorMatrix in="SourceAlpha" type="matrix" values="0 0 0 0 0 0 0 0 0 0 0 0 0 0 0 0 0 0 127 0" result="hardAlpha"/>
<feOffset dy="-0.75"/>
<feGaussianBlur stdDeviation="0.375"/>
<feComposite in2="hardAlpha" operator="arithmetic" k2="-1" k3="1"/>
<feColorMatrix type="matrix" values="0 0 0 0 0 0 0 0 0 0 0 0 0 0 0 0 0 0 0.2 0"/>
<feBlend mode="normal" in2="effect2_innerShadow_120_3648" result="effect3_innerShadow_120_3648"/>
</filter>
<linearGradient id="paint0_linear_120_3648" x1="86" y1="95" x2="86" y2="145" gradientUnits="userSpaceOnUse">
<stop stop-color="white"/>
<stop offset="1" stop-color="white" stop-opacity="0.9"/>
</linearGradient>
<linearGradient id="paint1_linear_120_3648" x1="86.0916" y1="230.941" x2="86.0916" y2="271.241" gradientUnits="userSpaceOnUse">
<stop stop-color="white"/>
<stop offset="1" stop-color="white" stop-opacity="0.9"/>
</linearGradient>
<linearGradient id="paint2_linear_120_3648" x1="214.583" y1="209" x2="214.583" y2="249.3" gradientUnits="userSpaceOnUse">
<stop stop-color="white"/>
<stop offset="1" stop-color="white" stop-opacity="0.9"/>
</linearGradient>
</defs>
</svg>
